<svg width="29" height="27" viewBox="0 0 29 27" fill="none" xmlns="http://www.w3.org/2000/svg">
<path d="M27.0744 0.781217C25.8309 0.0706299 24.444 1.44105 23.631 2.25315C21.7659 4.18188 20.1877 6.41515 18.4181 8.4454C16.4573 10.6787 14.6399 12.9119 12.6313 15.0945C11.4835 16.3127 10.24 17.6324 9.47485 19.155C7.75315 17.3785 6.27058 15.4498 4.35759 13.8764C2.97067 12.7598 0.675079 11.9477 0.722903 14.6377C0.818553 18.14 3.73587 21.896 5.88798 24.2814C6.79666 25.2965 7.99228 26.3624 9.3792 26.4132C11.0531 26.5147 12.7748 24.3829 13.7791 23.2155C15.5487 21.1853 16.9834 18.9012 18.6094 16.8203C20.7137 14.0794 22.8658 11.3893 24.9223 8.59767C26.2135 6.87196 30.2786 2.60836 27.0744 0.781217Z" fill="white"/>
</svg>
