<svg width="15" height="18" viewBox="0 0 15 18" fill="none" xmlns="http://www.w3.org/2000/svg">
<path d="M14.5716 7.4655C14.5691 7.31676 14.5367 7.17004 14.4762 7.03413C14.4157 6.89821 14.3284 6.7759 14.2196 6.6745L8.47157 0.908499C8.24994 0.686546 7.95021 0.560196 7.63657 0.556499C7.32259 0.558576 7.02228 0.685177 6.80157 0.908499L1.05357 6.6575C0.942488 6.76119 0.85338 6.88615 0.791537 7.02495C0.729694 7.16375 0.696379 7.31357 0.69357 7.4655C0.686729 7.60978 0.709501 7.75392 0.760484 7.88906C0.811467 8.0242 0.889581 8.14747 0.990013 8.25127C1.09044 8.35508 1.21107 8.43722 1.34445 8.49264C1.47783 8.54805 1.62115 8.57557 1.76557 8.5735C1.91639 8.57264 2.06555 8.54188 2.20441 8.483C2.34327 8.42413 2.46909 8.33831 2.57457 8.2305L4.57457 6.2305L6.61757 4.0115L6.51257 5.9895L6.51257 16.2815C6.50176 16.4335 6.52315 16.5862 6.57532 16.7294C6.62749 16.8726 6.70928 17.0032 6.81535 17.1127C6.92142 17.2221 7.04939 17.308 7.19089 17.3647C7.3324 17.4213 7.48426 17.4475 7.63657 17.4415C7.78896 17.4477 7.94094 17.4216 8.08256 17.365C8.22418 17.3084 8.35227 17.2225 8.45845 17.1131C8.56463 17.0036 8.64652 16.8729 8.69875 16.7296C8.75098 16.5863 8.77239 16.4336 8.76157 16.2815L8.76157 5.9895L8.64757 4.0115L10.6936 6.2355L12.6936 8.2355C12.7991 8.34331 12.9249 8.42913 13.0637 8.488C13.2026 8.54688 13.3517 8.57764 13.5026 8.5785C13.6474 8.58094 13.7912 8.55347 13.9249 8.49782C14.0586 8.44217 14.1794 8.35953 14.2797 8.25507C14.3801 8.15061 14.4578 8.02657 14.508 7.89072C14.5582 7.75486 14.5798 7.6101 14.5716 7.4655Z" fill="#EFE9FF"/>
</svg>
