<svg width="18" height="15" viewBox="0 0 18 15" fill="none" xmlns="http://www.w3.org/2000/svg">
<path d="M10.534 14.5716C10.6828 14.5691 10.8295 14.5367 10.9654 14.4762C11.1013 14.4157 11.2236 14.3284 11.325 14.2196L17.091 8.47157C17.313 8.24994 17.4393 7.95021 17.443 7.63657C17.4409 7.32259 17.3143 7.02228 17.091 6.80157L11.342 1.05357C11.2383 0.942489 11.1134 0.85338 10.9746 0.791537C10.8358 0.729695 10.6859 0.696379 10.534 0.69357C10.3897 0.686729 10.2456 0.709502 10.1105 0.760485C9.97531 0.811468 9.85204 0.889582 9.74824 0.990013C9.64443 1.09044 9.56229 1.21107 9.50688 1.34445C9.45146 1.47783 9.42394 1.62115 9.42601 1.76557C9.42688 1.91639 9.45763 2.06555 9.51651 2.20441C9.57538 2.34327 9.66121 2.46909 9.76901 2.57457L11.769 4.57457L13.988 6.61757L12.01 6.51257H1.71801C1.56597 6.50176 1.41335 6.52315 1.27013 6.57532C1.12691 6.62749 0.996308 6.70928 0.88684 6.81535C0.777373 6.92142 0.691506 7.04939 0.634845 7.19089C0.578184 7.3324 0.552003 7.48426 0.558011 7.63657C0.551859 7.78896 0.577933 7.94094 0.634529 8.08256C0.691126 8.22418 0.776971 8.35227 0.886454 8.45845C0.995938 8.56463 1.1266 8.64652 1.26989 8.69875C1.41318 8.75098 1.56588 8.77239 1.71801 8.76157H12.01L13.988 8.64757L11.764 10.6936L9.76401 12.6936C9.65621 12.7991 9.57038 12.9249 9.51151 13.0637C9.45263 13.2026 9.42188 13.3517 9.42101 13.5026C9.41857 13.6474 9.44604 13.7912 9.50169 13.9249C9.55734 14.0586 9.63998 14.1794 9.74444 14.2797C9.8489 14.3801 9.97294 14.4578 10.1088 14.508C10.2447 14.5582 10.3894 14.5798 10.534 14.5716Z" fill="#EFE9FF"/>
</svg>
