<svg width="16" height="10" viewBox="0 0 16 10" fill="none" xmlns="http://www.w3.org/2000/svg">
<path d="M8.00436 5.62225C8.27421 5.62225 8.51136 5.51245 8.79755 5.24891L14.3908 0.292822C14.1373 0.0951738 13.6876 0 13.0579 0H2.71366C2.18214 0 1.80599 0.0878423 1.59339 0.270873L7.20298 5.24891C7.48919 5.51245 7.73452 5.62225 8.00436 5.62225ZM1.00461 9.01903L5.51848 4.99268L0.996436 0.988288C0.906487 1.15667 0.857422 1.43484 0.857422 1.83749V8.16252C0.857422 8.56515 0.906487 8.85066 1.00461 9.01903ZM14.9959 9.01903C15.0941 8.85066 15.1431 8.56515 15.1431 8.16252V1.83749C15.1431 1.44218 15.0941 1.16399 14.9959 0.995604L10.4821 4.99268L14.9959 9.01903ZM2.94263 10H13.2869C13.8102 10 14.1782 9.91215 14.399 9.73646L9.77883 5.60762L9.36997 5.97365C8.91204 6.36896 8.48683 6.55198 8.00436 6.55198C7.51372 6.55198 7.09669 6.36896 6.63058 5.97365L6.22989 5.60762L1.62609 9.72182C1.87958 9.90483 2.32116 10 2.94263 10Z" fill="white"/>
</svg>
