<svg width="49" height="50" viewBox="0 0 49 50" fill="none" xmlns="http://www.w3.org/2000/svg">
<g opacity="0.8" filter="url(#filter0_f_330_860)">
<mask id="path-1-outside-1_330_860" maskUnits="userSpaceOnUse" x="9.57788" y="5.54419" width="29" height="26" fill="black">
<rect fill="white" x="9.57788" y="5.54419" width="29" height="26"/>
<path fill-rule="evenodd" clip-rule="evenodd" d="M16.2347 8.54419C14.7639 8.54419 13.5716 9.73649 13.5716 11.2073V12.5463C12.873 13.1619 12.5321 14.0908 12.5828 15.0147C12.7411 17.8974 13.388 21.2571 15.1311 23.9257C16.9164 26.6589 19.8117 28.5963 24.2239 28.5963C28.636 28.5963 31.5314 26.6589 33.3167 23.9257C35.0598 21.2571 35.7067 17.8974 35.865 15.0147C35.9316 13.8015 35.3229 12.5794 34.1154 12.0698V11.2073C34.1154 9.73649 32.9231 8.54419 31.4523 8.54419C30.0132 8.54419 28.8408 9.68568 28.7909 11.1126C27.5073 11.005 25.9963 10.9377 24.2239 10.9377C22.0891 10.9377 20.3334 11.0353 18.8976 11.1835C18.8849 9.72368 17.6975 8.54419 16.2347 8.54419ZM15.0226 18.0084C15.3652 19.7299 15.9443 21.4027 16.8562 22.7989C18.2741 24.9695 20.5311 26.5358 24.2239 26.5358C27.9167 26.5358 30.1737 24.9695 31.5915 22.7989C32.5099 21.3929 33.0907 19.7064 33.4323 17.9721C33.4556 17.1245 33.0927 16.3288 32.3052 15.9712C30.962 15.3612 28.4682 14.6315 24.2239 14.6315C19.9931 14.6315 17.5007 15.358 16.1559 15.9658C15.3538 16.3283 14.9888 17.1441 15.0226 18.0084Z"/>
</mask>
<path fill-rule="evenodd" clip-rule="evenodd" d="M16.2347 8.54419C14.7639 8.54419 13.5716 9.73649 13.5716 11.2073V12.5463C12.873 13.1619 12.5321 14.0908 12.5828 15.0147C12.7411 17.8974 13.388 21.2571 15.1311 23.9257C16.9164 26.6589 19.8117 28.5963 24.2239 28.5963C28.636 28.5963 31.5314 26.6589 33.3167 23.9257C35.0598 21.2571 35.7067 17.8974 35.865 15.0147C35.9316 13.8015 35.3229 12.5794 34.1154 12.0698V11.2073C34.1154 9.73649 32.9231 8.54419 31.4523 8.54419C30.0132 8.54419 28.8408 9.68568 28.7909 11.1126C27.5073 11.005 25.9963 10.9377 24.2239 10.9377C22.0891 10.9377 20.3334 11.0353 18.8976 11.1835C18.8849 9.72368 17.6975 8.54419 16.2347 8.54419ZM15.0226 18.0084C15.3652 19.7299 15.9443 21.4027 16.8562 22.7989C18.2741 24.9695 20.5311 26.5358 24.2239 26.5358C27.9167 26.5358 30.1737 24.9695 31.5915 22.7989C32.5099 21.3929 33.0907 19.7064 33.4323 17.9721C33.4556 17.1245 33.0927 16.3288 32.3052 15.9712C30.962 15.3612 28.4682 14.6315 24.2239 14.6315C19.9931 14.6315 17.5007 15.358 16.1559 15.9658C15.3538 16.3283 14.9888 17.1441 15.0226 18.0084Z" fill="url(#paint0_linear_330_860)"/>
<path d="M13.5716 12.5463L14.947 14.1073C15.3953 13.7123 15.6521 13.1437 15.6521 12.5463H13.5716ZM12.5828 15.0147L10.5054 15.1287L12.5828 15.0147ZM15.1311 23.9257L16.873 22.788L15.1311 23.9257ZM33.3167 23.9257L35.0585 25.0635V25.0635L33.3167 23.9257ZM35.865 15.0147L37.9424 15.1287V15.1287L35.865 15.0147ZM34.1154 12.0698H32.0349C32.0349 12.9063 32.5359 13.6615 33.3066 13.9867L34.1154 12.0698ZM28.7909 11.1126L28.617 13.1859C29.1844 13.2335 29.7465 13.0464 30.1723 12.6684C30.5981 12.2903 30.8503 11.7543 30.8702 11.1853L28.7909 11.1126ZM18.8976 11.1835L16.8172 11.2017C16.8223 11.7875 17.0741 12.344 17.5108 12.7345C17.9475 13.1249 18.5286 13.3132 19.1113 13.253L18.8976 11.1835ZM15.0226 18.0084L12.9437 18.0897C12.9479 18.1988 12.9608 18.3074 12.9821 18.4145L15.0226 18.0084ZM16.8562 22.7989L15.1144 23.9367H15.1144L16.8562 22.7989ZM31.5915 22.7989L29.8497 21.6611V21.6611L31.5915 22.7989ZM33.4323 17.9721L35.4736 18.3743C35.4961 18.2605 35.5089 18.1451 35.5121 18.0292L33.4323 17.9721ZM32.3052 15.9712L31.4449 17.8655L31.4449 17.8655L32.3052 15.9712ZM16.1559 15.9658L15.2991 14.0699L15.2991 14.0699L16.1559 15.9658ZM15.6521 11.2073C15.6521 10.8855 15.9129 10.6247 16.2347 10.6247V6.46366C13.6148 6.46366 11.4911 8.58744 11.4911 11.2073H15.6521ZM15.6521 12.5463V11.2073H11.4911V12.5463H15.6521ZM14.6602 14.9006C14.6403 14.5382 14.7803 14.2542 14.947 14.1073L12.1961 10.9853C10.9656 12.0695 10.4239 13.6435 10.5054 15.1287L14.6602 14.9006ZM16.873 22.788C15.4157 20.557 14.8093 17.6168 14.6602 14.9006L10.5054 15.1287C10.6728 18.178 11.3603 21.9573 13.3892 25.0635L16.873 22.788ZM24.2239 26.5158C20.5383 26.5158 18.2874 24.9534 16.873 22.788L13.3892 25.0635C15.5454 28.3644 19.0851 30.6768 24.2239 30.6768V26.5158ZM31.5748 22.788C30.1604 24.9534 27.9094 26.5158 24.2239 26.5158V30.6768C29.3626 30.6768 32.9024 28.3644 35.0585 25.0635L31.5748 22.788ZM33.7876 14.9006C33.6384 17.6168 33.0321 20.557 31.5748 22.788L35.0585 25.0635C37.0875 21.9573 37.775 18.178 37.9424 15.1287L33.7876 14.9006ZM33.3066 13.9867C33.5738 14.0995 33.8143 14.4131 33.7876 14.9006L37.9424 15.1287C38.0488 13.1899 37.072 11.0593 34.9243 10.153L33.3066 13.9867ZM32.0349 11.2073V12.0698H36.1959V11.2073H32.0349ZM31.4523 10.6247C31.7741 10.6247 32.0349 10.8855 32.0349 11.2073H36.1959C36.1959 8.58745 34.0722 6.46366 31.4523 6.46366V10.6247ZM30.8702 11.1853C30.881 10.8745 31.138 10.6247 31.4523 10.6247V6.46366C28.8885 6.46366 26.8005 8.4969 26.7117 11.04L30.8702 11.1853ZM24.2239 13.0183C25.944 13.0183 27.3967 13.0835 28.617 13.1859L28.9648 9.03938C27.6179 8.92639 26.0485 8.85719 24.2239 8.85719V13.0183ZM19.1113 13.253C20.4681 13.113 22.1519 13.0183 24.2239 13.0183V8.85719C22.0263 8.85719 20.1988 8.95757 18.6839 9.114L19.1113 13.253ZM16.2347 10.6247C16.5546 10.6247 16.8144 10.8828 16.8172 11.2017L20.9781 11.1654C20.9554 8.5646 18.8405 6.46366 16.2347 6.46366V10.6247ZM12.9821 18.4145C13.3586 20.3063 14.0139 22.2519 15.1144 23.9367L18.5981 21.6611C17.8746 20.5535 17.3718 19.1535 17.0631 17.6023L12.9821 18.4145ZM15.1144 23.9367C16.9034 26.6755 19.8051 28.6163 24.2239 28.6163V24.4552C21.2572 24.4552 19.6448 23.2635 18.5981 21.6611L15.1144 23.9367ZM24.2239 28.6163C28.6427 28.6163 31.5444 26.6755 33.3334 23.9367L29.8497 21.6611C28.803 23.2635 27.1906 24.4552 24.2239 24.4552V28.6163ZM33.3334 23.9367C34.4415 22.2403 35.0984 20.2792 35.4736 18.3743L31.3911 17.57C31.083 19.1336 30.5784 20.5456 29.8497 21.6611L33.3334 23.9367ZM35.5121 18.0292C35.5517 16.5864 34.913 14.8705 33.1655 14.0769L31.4449 17.8655C31.4291 17.8583 31.4039 17.8431 31.3787 17.819C31.3543 17.7957 31.3414 17.7752 31.3366 17.7662C31.3325 17.7584 31.3375 17.7651 31.3431 17.7914C31.3489 17.8178 31.3541 17.8593 31.3526 17.9151L35.5121 18.0292ZM33.1655 14.0769C31.5031 13.3219 28.7059 12.5509 24.2239 12.5509V16.712C28.2304 16.712 30.421 17.4005 31.4449 17.8655L33.1655 14.0769ZM24.2239 12.5509C19.7555 12.5509 16.9613 13.3187 15.2991 14.0699L17.0127 17.8617C18.0401 17.3974 20.2307 16.712 24.2239 16.712V12.5509ZM15.2991 14.0699C13.5207 14.8736 12.8865 16.628 12.9437 18.0897L17.1016 17.9271C17.0993 17.8688 17.1043 17.8247 17.1103 17.7957C17.1162 17.767 17.1219 17.7583 17.1185 17.7648C17.1146 17.7724 17.1024 17.7923 17.0783 17.8154C17.0533 17.8395 17.0283 17.8546 17.0127 17.8617L15.2991 14.0699Z" fill="url(#paint1_linear_330_860)" mask="url(#path-1-outside-1_330_860)"/>
</g>
<g filter="url(#filter1_f_330_860)">
<path d="M22.575 12.3499C22.575 14.9732 20.2357 17.0999 17.35 17.0999C14.4643 17.0999 12.125 14.9732 12.125 12.3499C12.125 7.59985 14.4643 7.59985 17.35 7.59985C20.2357 7.59985 22.575 9.7265 22.575 12.3499Z" fill="#FD1F97"/>
<path d="M35.8617 12.6925C35.8617 15.2427 33.2397 17.3101 30.0052 17.3101C26.7708 17.3101 25.5737 15.2427 25.5737 12.6925C25.5737 10.1422 27.178 8.07495 30.4124 8.07495C34.8572 8.07495 35.8617 10.1422 35.8617 12.6925Z" fill="#FD1F97"/>
</g>
<path d="M33.5142 12.9473C34.3945 13.2095 34.8866 14.041 34.8362 14.9582C34.5287 20.5588 32.3288 27.566 24.2238 27.566C16.1189 27.566 13.919 20.5588 13.6115 14.9582C13.5611 14.041 14.0531 13.2095 14.9335 12.9473C16.401 12.5102 19.2281 11.968 24.2238 11.968C29.2196 11.968 32.0467 12.5102 33.5142 12.9473Z" fill="white"/>
<path d="M14.0341 11.1449C14.0341 9.70855 15.1984 8.54419 16.6347 8.54419C18.071 8.54419 19.2354 9.70855 19.2354 11.1449V12.0117L14.0341 12.7052V11.1449Z" fill="#FF28FF"/>
<path d="M29.2516 11.1449C29.2516 9.70854 30.4159 8.54419 31.8522 8.54419C33.2886 8.54419 34.4529 9.70855 34.4529 11.1449V12.7052L29.2516 12.0117V11.1449Z" fill="#FF28FF"/>
<path fill-rule="evenodd" clip-rule="evenodd" d="M28.4055 23.0004C29.5545 23.0004 30.486 21.6377 30.486 19.9568C30.486 18.276 29.5545 16.9133 28.4055 16.9133C27.2564 16.9133 26.325 18.276 26.325 19.9568C26.325 21.6377 27.2564 23.0004 28.4055 23.0004ZM20.0833 23.0004C21.2324 23.0004 22.1639 21.6378 22.1639 19.9569C22.1639 18.276 21.2324 16.9134 20.0833 16.9134C18.9343 16.9134 18.0028 18.276 18.0028 19.9569C18.0028 21.6378 18.9343 23.0004 20.0833 23.0004Z" fill="url(#paint2_linear_330_860)"/>
<g filter="url(#filter2_d_330_860)">
<path fill-rule="evenodd" clip-rule="evenodd" d="M15.0226 18.0084C15.3652 19.7299 15.9443 21.4027 16.8562 22.7989C18.2741 24.9696 20.5311 26.5358 24.2239 26.5358C27.9166 26.5358 30.1737 24.9696 31.5915 22.7989C32.5099 21.3929 33.0907 19.7064 33.4324 17.9721C33.4555 17.1246 33.0926 16.3291 32.3052 15.9715C30.962 15.3615 28.4681 14.6317 24.2239 14.6317C19.9931 14.6317 17.5007 15.3583 16.1559 15.966C15.3539 16.3285 14.9889 17.1442 15.0226 18.0084ZM24.2239 10.9377C19.158 10.9377 16.227 11.487 14.6395 11.9599C13.2286 12.3801 12.5108 13.7026 12.5828 15.0147C12.7411 17.8974 13.388 21.2572 15.1311 23.9258C16.9164 26.6589 19.8117 28.5963 24.2239 28.5963C28.636 28.5963 31.5314 26.6589 33.3167 23.9258C35.0598 21.2572 35.7067 17.8974 35.865 15.0147C35.937 13.7026 35.2192 12.3801 33.8083 11.9599C32.2208 11.487 29.2898 10.9377 24.2239 10.9377Z" fill="url(#paint3_linear_330_860)"/>
</g>
<defs>
<filter id="filter0_f_330_860" x="4.25585" y="0.222034" width="39.9359" height="36.6963" filterUnits="userSpaceOnUse" color-interpolation-filters="sRGB">
<feFlood flood-opacity="0" result="BackgroundImageFix"/>
<feBlend mode="normal" in="SourceGraphic" in2="BackgroundImageFix" result="shape"/>
<feGaussianBlur stdDeviation="3.12079" result="effect1_foregroundBlur_330_860"/>
</filter>
<filter id="filter1_f_330_860" x="7.85" y="3.32485" width="32.2867" height="18.2602" filterUnits="userSpaceOnUse" color-interpolation-filters="sRGB">
<feFlood flood-opacity="0" result="BackgroundImageFix"/>
<feBlend mode="normal" in="SourceGraphic" in2="BackgroundImageFix" result="shape"/>
<feGaussianBlur stdDeviation="2.1375" result="effect1_foregroundBlur_330_860"/>
</filter>
<filter id="filter2_d_330_860" x="0.0947037" y="6.77668" width="48.2583" height="42.625" filterUnits="userSpaceOnUse" color-interpolation-filters="sRGB">
<feFlood flood-opacity="0" result="BackgroundImageFix"/>
<feColorMatrix in="SourceAlpha" type="matrix" values="0 0 0 0 0 0 0 0 0 0 0 0 0 0 0 0 0 0 127 0" result="hardAlpha"/>
<feOffset dy="8.32212"/>
<feGaussianBlur stdDeviation="6.24159"/>
<feColorMatrix type="matrix" values="0 0 0 0 0 0 0 0 0 0.580392 0 0 0 0 1 0 0 0 0.14 0"/>
<feBlend mode="normal" in2="BackgroundImageFix" result="effect1_dropShadow_330_860"/>
<feBlend mode="normal" in="SourceGraphic" in2="effect1_dropShadow_330_860" result="shape"/>
</filter>
<linearGradient id="paint0_linear_330_860" x1="12.5778" y1="14.9895" x2="32.0796" y2="28.3851" gradientUnits="userSpaceOnUse">
<stop offset="0.0260417" stop-color="#00E0FF"/>
<stop offset="0.515625" stop-color="#0094FF"/>
<stop offset="1" stop-color="#781FFD"/>
</linearGradient>
<linearGradient id="paint1_linear_330_860" x1="12.9938" y1="12.483" x2="38.7378" y2="15.0316" gradientUnits="userSpaceOnUse">
<stop stop-color="#00A3FF"/>
<stop offset="0.339401" stop-color="#583FF1"/>
<stop offset="1" stop-color="#781FFD"/>
</linearGradient>
<linearGradient id="paint2_linear_330_860" x1="18.0028" y1="16.9133" x2="22.7988" y2="26.7488" gradientUnits="userSpaceOnUse">
<stop stop-color="#00E0FF"/>
<stop offset="0.445833" stop-color="#0094FF"/>
<stop offset="1" stop-color="#781FFD"/>
</linearGradient>
<linearGradient id="paint3_linear_330_860" x1="12.5779" y1="10.9377" x2="29.5805" y2="33.3646" gradientUnits="userSpaceOnUse">
<stop stop-color="#00E0FF"/>
<stop offset="0.445833" stop-color="#0094FF"/>
<stop offset="1" stop-color="#781FFD"/>
</linearGradient>
</defs>
</svg>
