<svg width="138" height="50" viewBox="0 0 138 50" fill="none" xmlns="http://www.w3.org/2000/svg">
<g opacity="0.8" filter="url(#filter0_f_330_858)">
<mask id="path-1-outside-1_330_858" maskUnits="userSpaceOnUse" x="9.57788" y="5.54419" width="29" height="26" fill="black">
<rect fill="white" x="9.57788" y="5.54419" width="29" height="26"/>
<path fill-rule="evenodd" clip-rule="evenodd" d="M16.2347 8.54419C14.7639 8.54419 13.5716 9.73649 13.5716 11.2073V12.5463C12.873 13.1619 12.5321 14.0908 12.5828 15.0147C12.7411 17.8974 13.388 21.2571 15.1311 23.9257C16.9164 26.6589 19.8117 28.5963 24.2239 28.5963C28.636 28.5963 31.5314 26.6589 33.3167 23.9257C35.0598 21.2571 35.7067 17.8974 35.865 15.0147C35.9316 13.8015 35.3229 12.5794 34.1154 12.0698V11.2073C34.1154 9.73649 32.9231 8.54419 31.4523 8.54419C30.0132 8.54419 28.8408 9.68568 28.7909 11.1126C27.5073 11.005 25.9963 10.9377 24.2239 10.9377C22.0891 10.9377 20.3334 11.0353 18.8976 11.1835C18.8849 9.72368 17.6975 8.54419 16.2347 8.54419ZM15.0226 18.0084C15.3652 19.7299 15.9443 21.4027 16.8562 22.7989C18.2741 24.9695 20.5311 26.5358 24.2239 26.5358C27.9167 26.5358 30.1737 24.9695 31.5915 22.7989C32.5099 21.3929 33.0907 19.7064 33.4323 17.9721C33.4556 17.1245 33.0927 16.3288 32.3052 15.9712C30.962 15.3612 28.4682 14.6315 24.2239 14.6315C19.9931 14.6315 17.5007 15.358 16.1559 15.9658C15.3538 16.3283 14.9888 17.1441 15.0226 18.0084Z"/>
</mask>
<path fill-rule="evenodd" clip-rule="evenodd" d="M16.2347 8.54419C14.7639 8.54419 13.5716 9.73649 13.5716 11.2073V12.5463C12.873 13.1619 12.5321 14.0908 12.5828 15.0147C12.7411 17.8974 13.388 21.2571 15.1311 23.9257C16.9164 26.6589 19.8117 28.5963 24.2239 28.5963C28.636 28.5963 31.5314 26.6589 33.3167 23.9257C35.0598 21.2571 35.7067 17.8974 35.865 15.0147C35.9316 13.8015 35.3229 12.5794 34.1154 12.0698V11.2073C34.1154 9.73649 32.9231 8.54419 31.4523 8.54419C30.0132 8.54419 28.8408 9.68568 28.7909 11.1126C27.5073 11.005 25.9963 10.9377 24.2239 10.9377C22.0891 10.9377 20.3334 11.0353 18.8976 11.1835C18.8849 9.72368 17.6975 8.54419 16.2347 8.54419ZM15.0226 18.0084C15.3652 19.7299 15.9443 21.4027 16.8562 22.7989C18.2741 24.9695 20.5311 26.5358 24.2239 26.5358C27.9167 26.5358 30.1737 24.9695 31.5915 22.7989C32.5099 21.3929 33.0907 19.7064 33.4323 17.9721C33.4556 17.1245 33.0927 16.3288 32.3052 15.9712C30.962 15.3612 28.4682 14.6315 24.2239 14.6315C19.9931 14.6315 17.5007 15.358 16.1559 15.9658C15.3538 16.3283 14.9888 17.1441 15.0226 18.0084Z" fill="url(#paint0_linear_330_858)"/>
<path d="M13.5716 12.5463L14.947 14.1073C15.3953 13.7123 15.6521 13.1437 15.6521 12.5463H13.5716ZM12.5828 15.0147L10.5054 15.1287L12.5828 15.0147ZM15.1311 23.9257L16.873 22.788L15.1311 23.9257ZM33.3167 23.9257L35.0585 25.0635V25.0635L33.3167 23.9257ZM35.865 15.0147L37.9424 15.1287V15.1287L35.865 15.0147ZM34.1154 12.0698H32.0349C32.0349 12.9063 32.5359 13.6615 33.3066 13.9867L34.1154 12.0698ZM28.7909 11.1126L28.617 13.1859C29.1844 13.2335 29.7465 13.0464 30.1723 12.6684C30.5981 12.2903 30.8503 11.7543 30.8702 11.1853L28.7909 11.1126ZM18.8976 11.1835L16.8172 11.2017C16.8223 11.7875 17.0741 12.344 17.5108 12.7345C17.9475 13.1249 18.5286 13.3132 19.1113 13.253L18.8976 11.1835ZM15.0226 18.0084L12.9437 18.0897C12.9479 18.1988 12.9608 18.3074 12.9821 18.4145L15.0226 18.0084ZM16.8562 22.7989L15.1144 23.9367H15.1144L16.8562 22.7989ZM31.5915 22.7989L29.8497 21.6611V21.6611L31.5915 22.7989ZM33.4323 17.9721L35.4736 18.3743C35.4961 18.2605 35.5089 18.1451 35.5121 18.0292L33.4323 17.9721ZM32.3052 15.9712L31.4449 17.8655L31.4449 17.8655L32.3052 15.9712ZM16.1559 15.9658L15.2991 14.0699L15.2991 14.0699L16.1559 15.9658ZM15.6521 11.2073C15.6521 10.8855 15.9129 10.6247 16.2347 10.6247V6.46366C13.6148 6.46366 11.4911 8.58744 11.4911 11.2073H15.6521ZM15.6521 12.5463V11.2073H11.4911V12.5463H15.6521ZM14.6602 14.9006C14.6403 14.5382 14.7803 14.2542 14.947 14.1073L12.1961 10.9853C10.9656 12.0695 10.4239 13.6435 10.5054 15.1287L14.6602 14.9006ZM16.873 22.788C15.4157 20.557 14.8093 17.6168 14.6602 14.9006L10.5054 15.1287C10.6728 18.178 11.3603 21.9573 13.3892 25.0635L16.873 22.788ZM24.2239 26.5158C20.5383 26.5158 18.2874 24.9534 16.873 22.788L13.3892 25.0635C15.5454 28.3644 19.0851 30.6768 24.2239 30.6768V26.5158ZM31.5748 22.788C30.1604 24.9534 27.9094 26.5158 24.2239 26.5158V30.6768C29.3626 30.6768 32.9024 28.3644 35.0585 25.0635L31.5748 22.788ZM33.7876 14.9006C33.6384 17.6168 33.0321 20.557 31.5748 22.788L35.0585 25.0635C37.0875 21.9573 37.775 18.178 37.9424 15.1287L33.7876 14.9006ZM33.3066 13.9867C33.5738 14.0995 33.8143 14.4131 33.7876 14.9006L37.9424 15.1287C38.0488 13.1899 37.072 11.0593 34.9243 10.153L33.3066 13.9867ZM32.0349 11.2073V12.0698H36.1959V11.2073H32.0349ZM31.4523 10.6247C31.7741 10.6247 32.0349 10.8855 32.0349 11.2073H36.1959C36.1959 8.58745 34.0722 6.46366 31.4523 6.46366V10.6247ZM30.8702 11.1853C30.881 10.8745 31.138 10.6247 31.4523 10.6247V6.46366C28.8885 6.46366 26.8005 8.4969 26.7117 11.04L30.8702 11.1853ZM24.2239 13.0183C25.944 13.0183 27.3967 13.0835 28.617 13.1859L28.9648 9.03938C27.6179 8.92639 26.0485 8.85719 24.2239 8.85719V13.0183ZM19.1113 13.253C20.4681 13.113 22.1519 13.0183 24.2239 13.0183V8.85719C22.0263 8.85719 20.1988 8.95757 18.6839 9.114L19.1113 13.253ZM16.2347 10.6247C16.5546 10.6247 16.8144 10.8828 16.8172 11.2017L20.9781 11.1654C20.9554 8.5646 18.8405 6.46366 16.2347 6.46366V10.6247ZM12.9821 18.4145C13.3586 20.3063 14.0139 22.2519 15.1144 23.9367L18.5981 21.6611C17.8746 20.5535 17.3718 19.1535 17.0631 17.6023L12.9821 18.4145ZM15.1144 23.9367C16.9034 26.6755 19.8051 28.6163 24.2239 28.6163V24.4552C21.2572 24.4552 19.6448 23.2635 18.5981 21.6611L15.1144 23.9367ZM24.2239 28.6163C28.6427 28.6163 31.5444 26.6755 33.3334 23.9367L29.8497 21.6611C28.803 23.2635 27.1906 24.4552 24.2239 24.4552V28.6163ZM33.3334 23.9367C34.4415 22.2403 35.0984 20.2792 35.4736 18.3743L31.3911 17.57C31.083 19.1336 30.5784 20.5456 29.8497 21.6611L33.3334 23.9367ZM35.5121 18.0292C35.5517 16.5864 34.913 14.8705 33.1655 14.0769L31.4449 17.8655C31.4291 17.8583 31.4039 17.8431 31.3787 17.819C31.3543 17.7957 31.3414 17.7752 31.3366 17.7662C31.3325 17.7584 31.3375 17.7651 31.3431 17.7914C31.3489 17.8178 31.3541 17.8593 31.3526 17.9151L35.5121 18.0292ZM33.1655 14.0769C31.5031 13.3219 28.7059 12.5509 24.2239 12.5509V16.712C28.2304 16.712 30.421 17.4005 31.4449 17.8655L33.1655 14.0769ZM24.2239 12.5509C19.7555 12.5509 16.9613 13.3187 15.2991 14.0699L17.0127 17.8617C18.0401 17.3974 20.2307 16.712 24.2239 16.712V12.5509ZM15.2991 14.0699C13.5207 14.8736 12.8865 16.628 12.9437 18.0897L17.1016 17.9271C17.0993 17.8688 17.1043 17.8247 17.1103 17.7957C17.1162 17.767 17.1219 17.7583 17.1185 17.7648C17.1146 17.7724 17.1024 17.7923 17.0783 17.8154C17.0533 17.8395 17.0283 17.8546 17.0127 17.8617L15.2991 14.0699Z" fill="url(#paint1_linear_330_858)" mask="url(#path-1-outside-1_330_858)"/>
</g>
<g filter="url(#filter1_f_330_858)">
<path d="M22.575 12.3499C22.575 14.9732 20.2357 17.0999 17.35 17.0999C14.4643 17.0999 12.125 14.9732 12.125 12.3499C12.125 7.59985 14.4643 7.59985 17.35 7.59985C20.2357 7.59985 22.575 9.7265 22.575 12.3499Z" fill="#FD1F97"/>
<path d="M35.8617 12.6925C35.8617 15.2427 33.2397 17.3101 30.0052 17.3101C26.7708 17.3101 25.5737 15.2427 25.5737 12.6925C25.5737 10.1422 27.178 8.07495 30.4124 8.07495C34.8572 8.07495 35.8617 10.1422 35.8617 12.6925Z" fill="#FD1F97"/>
</g>
<path d="M33.5142 12.9473C34.3945 13.2095 34.8866 14.041 34.8362 14.9582C34.5287 20.5588 32.3288 27.566 24.2238 27.566C16.1189 27.566 13.919 20.5588 13.6115 14.9582C13.5611 14.041 14.0531 13.2095 14.9335 12.9473C16.401 12.5102 19.2281 11.968 24.2238 11.968C29.2196 11.968 32.0467 12.5102 33.5142 12.9473Z" fill="white"/>
<path d="M14.0341 11.1449C14.0341 9.70855 15.1984 8.54419 16.6347 8.54419C18.071 8.54419 19.2354 9.70855 19.2354 11.1449V12.0117L14.0341 12.7052V11.1449Z" fill="#FF28FF"/>
<path d="M29.2516 11.1449C29.2516 9.70854 30.4159 8.54419 31.8522 8.54419C33.2886 8.54419 34.4529 9.70855 34.4529 11.1449V12.7052L29.2516 12.0117V11.1449Z" fill="#FF28FF"/>
<path fill-rule="evenodd" clip-rule="evenodd" d="M28.4055 23.0004C29.5545 23.0004 30.486 21.6377 30.486 19.9568C30.486 18.276 29.5545 16.9133 28.4055 16.9133C27.2564 16.9133 26.325 18.276 26.325 19.9568C26.325 21.6377 27.2564 23.0004 28.4055 23.0004ZM20.0833 23.0004C21.2324 23.0004 22.1639 21.6378 22.1639 19.9569C22.1639 18.276 21.2324 16.9134 20.0833 16.9134C18.9343 16.9134 18.0028 18.276 18.0028 19.9569C18.0028 21.6378 18.9343 23.0004 20.0833 23.0004Z" fill="url(#paint2_linear_330_858)"/>
<g filter="url(#filter2_d_330_858)">
<path fill-rule="evenodd" clip-rule="evenodd" d="M15.0226 18.0084C15.3652 19.7299 15.9443 21.4027 16.8562 22.7989C18.2741 24.9696 20.5311 26.5358 24.2239 26.5358C27.9167 26.5358 30.1737 24.9696 31.5915 22.7989C32.5099 21.3929 33.0907 19.7064 33.4324 17.9721C33.4555 17.1246 33.0926 16.3291 32.3052 15.9715C30.962 15.3615 28.4682 14.6317 24.2239 14.6317C19.9931 14.6317 17.5007 15.3583 16.1559 15.966C15.3539 16.3285 14.9889 17.1442 15.0226 18.0084ZM24.2239 10.9377C19.158 10.9377 16.227 11.487 14.6395 11.9599C13.2286 12.3801 12.5108 13.7026 12.5828 15.0147C12.7411 17.8974 13.388 21.2572 15.1311 23.9258C16.9164 26.6589 19.8117 28.5963 24.2239 28.5963C28.636 28.5963 31.5314 26.6589 33.3167 23.9258C35.0598 21.2572 35.7067 17.8974 35.865 15.0147C35.937 13.7026 35.2192 12.3801 33.8083 11.9599C32.2208 11.487 29.2898 10.9377 24.2239 10.9377Z" fill="url(#paint3_linear_330_858)"/>
</g>
<g filter="url(#filter3_f_330_858)">
<path d="M44.9507 25.3828H48.2463V13.7318H44.9507V25.3828ZM56.483 16.2118C55.3512 16.2118 54.3359 16.5947 53.6202 17.3436V16.3616H50.6076V25.3828H53.77V21.022C53.77 19.524 54.5523 18.8916 55.5676 18.8916C56.483 18.8916 57.0489 19.4408 57.0489 20.7391V25.3828H60.2113V20.2231C60.2113 17.4269 58.5968 16.2118 56.483 16.2118ZM65.8086 16.4948C65.8086 15.6959 66.1914 15.313 66.8572 15.313C67.19 15.313 67.5396 15.4296 67.8059 15.5794L68.5882 13.349C68.0722 13.0328 67.2566 12.883 66.491 12.883C64.0776 12.883 62.7294 14.2978 62.7294 16.4615V16.6945H61.4145V19.058H62.7294V25.3828H65.8918V19.058H67.9557V16.6945H65.8086V16.4948ZM73.7211 25.5326C76.7004 25.5326 78.8142 23.5852 78.8142 20.8556C78.8142 18.1426 76.7004 16.2118 73.7211 16.2118C70.7751 16.2118 68.6279 18.1426 68.6279 20.8556C68.6279 23.5852 70.7751 25.5326 73.7211 25.5326ZM73.7211 23.0193C72.6559 23.0193 71.8236 22.2371 71.8236 20.8556C71.8236 19.4908 72.6559 18.7251 73.7211 18.7251C74.803 18.7251 75.6185 19.4908 75.6185 20.8556C75.6185 22.2371 74.803 23.0193 73.7211 23.0193ZM92.1964 16.2118C90.8982 16.2118 89.783 16.7278 89.0673 17.6266C88.4348 16.6612 87.3863 16.2118 86.1546 16.2118C85.0894 16.2118 84.1406 16.578 83.4582 17.3104V16.3616H80.4456V25.3828H83.608V20.9055C83.608 19.5074 84.2738 18.8916 85.2059 18.8916C86.0547 18.8916 86.5707 19.4408 86.5707 20.7391V25.3828H89.7331V20.9055C89.7331 19.5074 90.3989 18.8916 91.3143 18.8916C92.1465 18.8916 92.6791 19.4408 92.6791 20.7391V25.3828H95.8415V20.2231C95.8415 17.4269 94.2936 16.2118 92.1964 16.2118ZM101.849 16.2118C100.434 16.2118 98.9028 16.578 97.8708 17.2604L98.9361 19.4075C99.5519 18.9248 100.517 18.6253 101.383 18.6253C102.631 18.6253 103.247 19.1412 103.297 20.0567H101.499C98.703 20.0567 97.488 21.0886 97.488 22.753C97.488 24.3176 98.6864 25.5326 100.85 25.5326C102.165 25.5326 103.064 25.0832 103.513 24.2177V25.3828H106.459V20.3729C106.459 17.5101 104.778 16.2118 101.849 16.2118ZM101.732 23.5353C100.983 23.5353 100.551 23.1525 100.551 22.6199C100.551 22.0706 100.917 21.7044 101.932 21.7044H103.297V22.4867C103.047 23.2024 102.431 23.5353 101.732 23.5353ZM114.065 22.803C113.798 22.986 113.449 23.0859 113.099 23.0859C112.533 23.0859 112.15 22.7197 112.15 22.054V19.058H114.214V16.6945H112.15V14.3477H108.988V16.6945H107.673V19.058H108.988V22.0873C108.988 24.4008 110.336 25.5326 112.65 25.5326C113.482 25.5326 114.298 25.3662 114.847 25.0166L114.065 22.803ZM117.814 15.363C118.979 15.363 119.745 14.6306 119.745 13.632C119.745 12.6833 118.979 12.0008 117.814 12.0008C116.649 12.0008 115.883 12.7332 115.883 13.6819C115.883 14.6306 116.649 15.363 117.814 15.363ZM116.233 25.3828H119.395V16.3616H116.233V25.3828ZM130.954 25.3828L127.509 20.7557L130.838 16.3616H127.492L125.828 18.6419L124.23 16.3616H120.668L123.997 20.8722L120.568 25.3828H123.997L125.728 23.0193L127.342 25.3828H130.954Z" fill="url(#paint4_linear_330_858)"/>
<path d="M44.9507 25.3828H42.8702C42.8702 26.5319 43.8017 27.4633 44.9507 27.4633V25.3828ZM48.2463 25.3828V27.4633C49.3953 27.4633 50.3268 26.5319 50.3268 25.3828H48.2463ZM48.2463 13.7318H50.3268C50.3268 12.5828 49.3953 11.6513 48.2463 11.6513V13.7318ZM44.9507 13.7318V11.6513C43.8017 11.6513 42.8702 12.5828 42.8702 13.7318H44.9507ZM44.9507 27.4633H48.2463V23.3023H44.9507V27.4633ZM50.3268 25.3828V13.7318H46.1658V25.3828H50.3268ZM48.2463 11.6513H44.9507V15.8124H48.2463V11.6513ZM42.8702 13.7318V25.3828H47.0313V13.7318H42.8702ZM53.6202 17.3436H51.5396C51.5396 18.1938 52.0568 18.9583 52.8459 19.2747C53.6349 19.5911 54.5371 19.3956 55.1244 18.781L53.6202 17.3436ZM53.6202 16.3616H55.7007C55.7007 15.2126 54.7692 14.2811 53.6202 14.2811V16.3616ZM50.6076 16.3616V14.2811C49.4585 14.2811 48.527 15.2126 48.527 16.3616H50.6076ZM50.6076 25.3828H48.527C48.527 26.5319 49.4585 27.4633 50.6076 27.4633V25.3828ZM53.77 25.3828V27.4633C54.919 27.4633 55.8505 26.5319 55.8505 25.3828H53.77ZM57.0489 25.3828H54.9684C54.9684 26.5319 55.8998 27.4633 57.0489 27.4633V25.3828ZM60.2113 25.3828V27.4633C61.3603 27.4633 62.2918 26.5319 62.2918 25.3828H60.2113ZM56.483 14.1313C54.8822 14.1313 53.2879 14.6799 52.116 15.9063L55.1244 18.781C55.3839 18.5094 55.8201 18.2924 56.483 18.2924V14.1313ZM55.7007 17.3436V16.3616H51.5396V17.3436H55.7007ZM53.6202 14.2811H50.6076V18.4422H53.6202V14.2811ZM48.527 16.3616V25.3828H52.6881V16.3616H48.527ZM50.6076 27.4633H53.77V23.3023H50.6076V27.4633ZM55.8505 25.3828V21.022H51.6894V25.3828H55.8505ZM55.8505 21.022C55.8505 20.8249 55.8766 20.7309 55.8835 20.71C55.8886 20.6947 55.8738 20.7452 55.8087 20.815C55.7423 20.8861 55.6647 20.9329 55.6019 20.9569C55.5456 20.9785 55.5275 20.9721 55.5676 20.9721V16.811C54.6243 16.811 53.5701 17.1154 52.7674 17.9751C51.9786 18.8199 51.6894 19.9261 51.6894 21.022H55.8505ZM55.5676 20.9721C55.5923 20.9721 55.5309 20.9761 55.4211 20.9328C55.2999 20.8849 55.1714 20.7991 55.0695 20.6797C54.9732 20.567 54.9471 20.4791 54.9468 20.4781C54.9468 20.4781 54.9482 20.4831 54.9504 20.494C54.9526 20.5048 54.9553 20.5209 54.9581 20.5429C54.9636 20.5872 54.9684 20.6516 54.9684 20.7391H59.1294C59.1294 19.8324 58.9377 18.8017 58.2335 17.9772C57.4782 17.093 56.4529 16.811 55.5676 16.811V20.9721ZM54.9684 20.7391V25.3828H59.1294V20.7391H54.9684ZM57.0489 27.4633H60.2113V23.3023H57.0489V27.4633ZM62.2918 25.3828V20.2231H58.1308V25.3828H62.2918ZM62.2918 20.2231C62.2918 18.4228 61.7628 16.8243 60.5947 15.6816C59.4388 14.5509 57.927 14.1313 56.483 14.1313V18.2924C57.1528 18.2924 57.5051 18.4803 57.685 18.6562C57.8525 18.8201 58.1308 19.2271 58.1308 20.2231H62.2918ZM67.8059 15.5794L66.7859 17.3927C67.322 17.6943 67.9642 17.7431 68.5398 17.5261C69.1155 17.3091 69.5655 16.8485 69.7691 16.268L67.8059 15.5794ZM68.5882 13.349L70.5514 14.0376C70.8758 13.1129 70.5109 12.0872 69.6754 11.5752L68.5882 13.349ZM62.7294 16.6945V18.7751C63.8784 18.7751 64.8099 17.8436 64.8099 16.6945H62.7294ZM61.4145 16.6945V14.614C60.2654 14.614 59.334 15.5455 59.334 16.6945H61.4145ZM61.4145 19.058H59.334C59.334 20.207 60.2654 21.1385 61.4145 21.1385V19.058ZM62.7294 19.058H64.8099C64.8099 17.909 63.8784 16.9775 62.7294 16.9775V19.058ZM62.7294 25.3828H60.6489C60.6489 26.5319 61.5803 27.4633 62.7294 27.4633V25.3828ZM65.8918 25.3828V27.4633C67.0408 27.4633 67.9723 26.5319 67.9723 25.3828H65.8918ZM65.8918 19.058V16.9775C64.7427 16.9775 63.8113 17.909 63.8113 19.058H65.8918ZM67.9557 19.058V21.1385C69.1047 21.1385 70.0362 20.207 70.0362 19.058H67.9557ZM67.9557 16.6945H70.0362C70.0362 15.5455 69.1047 14.614 67.9557 14.614V16.6945ZM65.8086 16.6945H63.728C63.728 17.8436 64.6595 18.7751 65.8086 18.7751V16.6945ZM67.8891 16.4948C67.8891 16.3959 67.9144 16.685 67.6182 17.0087C67.2932 17.364 66.9227 17.3936 66.8572 17.3936V13.2325C66.1258 13.2325 65.2311 13.4535 64.5482 14.1999C63.8941 14.9148 63.728 15.7947 63.728 16.4948H67.8891ZM66.8572 17.3936C66.82 17.3936 66.7949 17.3904 66.7829 17.3885C66.7707 17.3866 66.766 17.385 66.768 17.3856C66.77 17.3862 66.7743 17.3876 66.7797 17.3899C66.7852 17.3922 66.7876 17.3937 66.7859 17.3927L68.8259 13.766C68.329 13.4865 67.6298 13.2325 66.8572 13.2325V17.3936ZM69.7691 16.268L70.5514 14.0376L66.6249 12.6604L65.8426 14.8907L69.7691 16.268ZM69.6754 11.5752C68.688 10.97 67.426 10.8025 66.491 10.8025V14.9635C66.7456 14.9635 66.9954 14.9891 67.2028 15.033C67.4259 15.0801 67.512 15.1297 67.501 15.1229L69.6754 11.5752ZM66.491 10.8025C64.8788 10.8025 63.3671 11.2822 62.2511 12.3728C61.1314 13.467 60.6489 14.9429 60.6489 16.4615H64.8099C64.8099 15.8164 65.0015 15.503 65.1592 15.3489C65.3206 15.1912 65.6898 14.9635 66.491 14.9635V10.8025ZM60.6489 16.4615V16.6945H64.8099V16.4615H60.6489ZM62.7294 14.614H61.4145V18.7751H62.7294V14.614ZM59.334 16.6945V19.058H63.495V16.6945H59.334ZM61.4145 21.1385H62.7294V16.9775H61.4145V21.1385ZM60.6489 19.058V25.3828H64.8099V19.058H60.6489ZM62.7294 27.4633H65.8918V23.3023H62.7294V27.4633ZM67.9723 25.3828V19.058H63.8113V25.3828H67.9723ZM65.8918 21.1385H67.9557V16.9775H65.8918V21.1385ZM70.0362 19.058V16.6945H65.8751V19.058H70.0362ZM67.9557 14.614H65.8086V18.7751H67.9557V14.614ZM67.8891 16.6945V16.4948H63.728V16.6945H67.8891ZM73.7211 27.6131C77.6809 27.6131 80.8947 24.8959 80.8947 20.8556H76.7337C76.7337 22.2746 75.7199 23.4521 73.7211 23.4521V27.6131ZM80.8947 20.8556C80.8947 16.8178 77.6655 14.1313 73.7211 14.1313V18.2924C75.7353 18.2924 76.7337 19.4673 76.7337 20.8556H80.8947ZM73.7211 14.1313C69.8194 14.1313 66.5474 16.8092 66.5474 20.8556H70.7085C70.7085 19.4759 71.7307 18.2924 73.7211 18.2924V14.1313ZM66.5474 20.8556C66.5474 24.9045 69.804 27.6131 73.7211 27.6131V23.4521C71.7462 23.4521 70.7085 22.266 70.7085 20.8556H66.5474ZM73.7211 20.9388C73.7106 20.9388 73.7328 20.9373 73.7754 20.955C73.8198 20.9735 73.8644 21.0041 73.899 21.0415C73.9332 21.0783 73.938 21.1004 73.9317 21.0826C73.9247 21.0629 73.9042 20.9926 73.9042 20.8556H69.7431C69.7431 21.9662 70.084 23.0463 70.8468 23.8696C71.6159 24.6997 72.6615 25.0999 73.7211 25.0999V20.9388ZM73.9042 20.8556C73.9042 20.7253 73.9239 20.6626 73.9285 20.6498C73.9323 20.6393 73.924 20.6662 73.8869 20.7055C73.8496 20.7452 73.8041 20.7749 73.7623 20.792C73.7224 20.8083 73.7047 20.8056 73.7211 20.8056V16.6446C72.6756 16.6446 71.6327 17.0305 70.8589 17.8515C70.0886 18.6688 69.7431 19.7461 69.7431 20.8556H73.9042ZM73.7211 20.8056C73.7455 20.8056 73.7303 20.8097 73.6892 20.7929C73.6457 20.7752 73.5972 20.7437 73.5571 20.7009C73.5176 20.6587 73.5089 20.6299 73.5129 20.6413C73.5179 20.6552 73.538 20.7207 73.538 20.8556H77.6991C77.6991 19.7575 77.3644 18.6787 76.5939 17.8562C75.8166 17.0264 74.7684 16.6446 73.7211 16.6446V20.8056ZM73.538 20.8556C73.538 20.9972 73.5171 21.0702 73.5098 21.0911C73.5033 21.1098 73.5085 21.0858 73.5451 21.0461C73.5824 21.0056 73.63 20.9732 73.6761 20.9541C73.72 20.9358 73.7398 20.9388 73.7211 20.9388V25.0999C74.7825 25.0999 75.8334 24.7038 76.6059 23.8649C77.3689 23.0364 77.6991 21.9549 77.6991 20.8556H73.538ZM89.0673 17.6266L87.327 18.7668C87.6929 19.3251 88.3044 19.6741 88.9712 19.7049C89.638 19.7358 90.2791 19.4448 90.6949 18.9226L89.0673 17.6266ZM83.4582 17.3104H81.3777C81.3777 18.1652 81.9006 18.9331 82.6961 19.2463C83.4915 19.5594 84.3976 19.3541 84.9804 18.7287L83.4582 17.3104ZM83.4582 16.3616H85.5388C85.5388 15.2126 84.6073 14.2811 83.4582 14.2811V16.3616ZM80.4456 16.3616V14.2811C79.2966 14.2811 78.3651 15.2126 78.3651 16.3616H80.4456ZM80.4456 25.3828H78.3651C78.3651 26.5319 79.2966 27.4633 80.4456 27.4633V25.3828ZM83.608 25.3828V27.4633C84.7571 27.4633 85.6885 26.5319 85.6885 25.3828H83.608ZM86.5707 25.3828H84.4902C84.4902 26.5319 85.4216 27.4633 86.5707 27.4633V25.3828ZM89.7331 25.3828V27.4633C90.8821 27.4633 91.8136 26.5319 91.8136 25.3828H89.7331ZM92.6791 25.3828H90.5986C90.5986 26.5319 91.5301 27.4633 92.6791 27.4633V25.3828ZM95.8415 25.3828V27.4633C96.9906 27.4633 97.9221 26.5319 97.9221 25.3828H95.8415ZM92.1964 14.1313C90.3346 14.1313 88.5919 14.8837 87.4398 16.3306L90.6949 18.9226C90.9742 18.5719 91.4618 18.2924 92.1964 18.2924V14.1313ZM90.8076 16.4864C89.6997 14.7953 87.9037 14.1313 86.1546 14.1313V18.2924C86.8688 18.2924 87.17 18.5271 87.327 18.7668L90.8076 16.4864ZM86.1546 14.1313C84.6003 14.1313 83.0684 14.6768 81.9361 15.892L84.9804 18.7287C85.2128 18.4792 85.5784 18.2924 86.1546 18.2924V14.1313ZM85.5388 17.3104V16.3616H81.3777V17.3104H85.5388ZM83.4582 14.2811H80.4456V18.4422H83.4582V14.2811ZM78.3651 16.3616V25.3828H82.5261V16.3616H78.3651ZM80.4456 27.4633H83.608V23.3023H80.4456V27.4633ZM85.6885 25.3828V20.9055H81.5275V25.3828H85.6885ZM85.6885 20.9055C85.6885 20.5078 85.785 20.5564 85.6343 20.7315C85.5573 20.821 85.4566 20.8917 85.3544 20.9338C85.2594 20.9728 85.2007 20.9721 85.2059 20.9721V16.811C84.2608 16.811 83.2346 17.1409 82.4806 18.017C81.7639 18.8496 81.5275 19.9051 81.5275 20.9055H85.6885ZM85.2059 20.9721C85.1964 20.9721 85.0994 20.9706 84.9587 20.9104C84.8063 20.8452 84.6686 20.7387 84.5699 20.6129C84.4788 20.4968 84.4603 20.4153 84.4649 20.4325C84.4703 20.453 84.4902 20.5458 84.4902 20.7391H88.6512C88.6512 19.8687 88.4873 18.8646 87.8433 18.0441C87.1263 17.1303 86.1125 16.811 85.2059 16.811V20.9721ZM84.4902 20.7391V25.3828H88.6512V20.7391H84.4902ZM86.5707 27.4633H89.7331V23.3023H86.5707V27.4633ZM91.8136 25.3828V20.9055H87.6526V25.3828H91.8136ZM91.8136 20.9055C91.8136 20.5083 91.9099 20.5528 91.7622 20.7258C91.6865 20.8143 91.586 20.8865 91.4807 20.9304C91.3823 20.9713 91.3178 20.9721 91.3143 20.9721V16.811C90.3668 16.811 89.3459 17.1481 88.5986 18.0227C87.8891 18.8531 87.6526 19.9046 87.6526 20.9055H91.8136ZM91.3143 20.9721C91.2954 20.9721 91.1962 20.9689 91.0569 20.909C90.9073 20.8447 90.7735 20.7411 90.6776 20.6199C90.5886 20.5074 90.5698 20.4281 90.5737 20.4429C90.5786 20.4611 90.5986 20.5507 90.5986 20.7391H94.7597C94.7597 19.8548 94.586 18.853 93.94 18.0371C93.227 17.1364 92.2226 16.811 91.3143 16.811V20.9721ZM90.5986 20.7391V25.3828H94.7597V20.7391H90.5986ZM92.6791 27.4633H95.8415V23.3023H92.6791V27.4633ZM97.9221 25.3828V20.2231H93.761V25.3828H97.9221ZM97.9221 20.2231C97.9221 18.4472 97.4239 16.8524 96.2813 15.7024C95.1414 14.5553 93.6387 14.1313 92.1964 14.1313V18.2924C92.8514 18.2924 93.1712 18.4759 93.3296 18.6353C93.4852 18.7919 93.761 19.2028 93.761 20.2231H97.9221ZM97.8708 17.2604L96.7232 15.525C95.8476 16.1041 95.5405 17.2447 96.0071 18.1851L97.8708 17.2604ZM98.9361 19.4075L97.0723 20.3322C97.3504 20.8928 97.8661 21.2984 98.4765 21.4367C99.0868 21.5749 99.727 21.4311 100.22 21.045L98.9361 19.4075ZM103.297 20.0567V22.1372C103.868 22.1372 104.415 21.9021 104.808 21.4872C105.2 21.0722 105.405 20.514 105.374 19.9433L103.297 20.0567ZM103.513 24.2177H105.594C105.594 23.2587 104.938 22.424 104.007 22.1966C103.075 21.9691 102.109 22.4079 101.667 23.259L103.513 24.2177ZM103.513 25.3828H101.433C101.433 26.5319 102.364 27.4633 103.513 27.4633V25.3828ZM106.459 25.3828V27.4633C107.608 27.4633 108.54 26.5319 108.54 25.3828H106.459ZM103.297 21.7044H105.377C105.377 20.5554 104.446 19.6239 103.297 19.6239V21.7044ZM103.297 22.4867L105.261 23.172C105.338 22.9517 105.377 22.72 105.377 22.4867H103.297ZM101.849 14.1313C100.152 14.1313 98.1874 14.5568 96.7232 15.525L99.0184 18.9958C99.6182 18.5992 100.716 18.2924 101.849 18.2924V14.1313ZM96.0071 18.1851L97.0723 20.3322L100.8 18.4829L99.7346 16.3358L96.0071 18.1851ZM100.22 21.045C100.413 20.8936 100.905 20.7058 101.383 20.7058V16.5447C100.129 16.5447 98.6911 16.9561 97.6526 17.77L100.22 21.045ZM101.383 20.7058C101.557 20.7058 101.643 20.7243 101.663 20.7299C101.681 20.7345 101.616 20.72 101.52 20.6463C101.417 20.5672 101.33 20.4585 101.274 20.3406C101.222 20.2313 101.219 20.1615 101.219 20.17L105.374 19.9433C105.323 19.0096 104.948 18.0342 104.058 17.349C103.239 16.7186 102.253 16.5447 101.383 16.5447V20.7058ZM103.297 17.9761H101.499V22.1372H103.297V17.9761ZM101.499 17.9761C99.9023 17.9761 98.3948 18.2609 97.2368 19.087C95.9599 19.9979 95.4075 21.348 95.4075 22.753H99.5685C99.5685 22.5907 99.5975 22.5293 99.5998 22.5244C99.6017 22.5205 99.6029 22.5185 99.6059 22.515C99.6092 22.5112 99.622 22.4967 99.6533 22.4744C99.8019 22.3684 100.3 22.1372 101.499 22.1372V17.9761ZM95.4075 22.753C95.4075 24.0942 95.936 25.3742 96.9868 26.2946C98.0188 27.1985 99.3857 27.6131 100.85 27.6131V23.4521C100.151 23.4521 99.8367 23.2592 99.7285 23.1645C99.6392 23.0862 99.5685 22.9764 99.5685 22.753H95.4075ZM100.85 27.6131C102.643 27.6131 104.433 26.9612 105.36 25.1765L101.667 23.259C101.65 23.2917 101.64 23.3071 101.583 23.3354C101.499 23.377 101.282 23.4521 100.85 23.4521V27.6131ZM101.433 24.2177V25.3828H105.594V24.2177H101.433ZM103.513 27.4633H106.459V23.3023H103.513V27.4633ZM108.54 25.3828V20.3729H104.379V25.3828H108.54ZM108.54 20.3729C108.54 18.5266 107.983 16.8335 106.616 15.6474C105.304 14.5089 103.577 14.1313 101.849 14.1313V18.2924C103.05 18.2924 103.628 18.5639 103.889 18.7902C104.095 18.969 104.379 19.3564 104.379 20.3729H108.54ZM101.732 21.4548C101.693 21.4548 101.901 21.4444 102.164 21.656C102.468 21.8999 102.631 22.2743 102.631 22.6199H98.47C98.47 23.4981 98.8498 24.3301 99.5568 24.8987C100.223 25.4348 101.022 25.6158 101.732 25.6158V21.4548ZM102.631 22.6199C102.631 22.7113 102.616 22.8879 102.521 23.0987C102.42 23.3224 102.265 23.5065 102.091 23.6339C101.79 23.8548 101.61 23.785 101.932 23.785V19.6239C101.239 19.6239 100.368 19.7372 99.6302 20.2784C98.7666 20.9117 98.47 21.8329 98.47 22.6199H102.631ZM101.932 23.785H103.297V19.6239H101.932V23.785ZM101.216 21.7044V22.4867H105.377V21.7044H101.216ZM101.332 21.8014C101.342 21.7741 101.365 21.7238 101.41 21.6658C101.456 21.6077 101.512 21.5587 101.57 21.5219C101.685 21.449 101.758 21.4548 101.732 21.4548V25.6158C103.13 25.6158 104.663 24.8865 105.261 23.172L101.332 21.8014ZM114.064 22.803L116.026 22.1097C115.811 21.4996 115.323 21.0245 114.708 20.8244C114.093 20.6243 113.419 20.7219 112.886 21.0885L114.064 22.803ZM112.15 19.058V16.9775C111.001 16.9775 110.07 17.909 110.07 19.058H112.15ZM114.214 19.058V21.1385C115.363 21.1385 116.295 20.207 116.295 19.058H114.214ZM114.214 16.6945H116.295C116.295 15.5455 115.363 14.614 114.214 14.614V16.6945ZM112.15 16.6945H110.07C110.07 17.8436 111.001 18.7751 112.15 18.7751V16.6945ZM112.15 14.3477H114.231C114.231 13.1986 113.299 12.2672 112.15 12.2672V14.3477ZM108.988 14.3477V12.2672C107.839 12.2672 106.907 13.1986 106.907 14.3477H108.988ZM108.988 16.6945V18.7751C110.137 18.7751 111.069 17.8436 111.069 16.6945H108.988ZM107.673 16.6945V14.614C106.524 14.614 105.593 15.5455 105.593 16.6945H107.673ZM107.673 19.058H105.593C105.593 20.207 106.524 21.1385 107.673 21.1385V19.058ZM108.988 19.058H111.069C111.069 17.909 110.137 16.9775 108.988 16.9775V19.058ZM114.847 25.0166L115.964 26.7719C116.781 26.2519 117.131 25.2367 116.808 24.3234L114.847 25.0166ZM112.886 21.0885C112.954 21.0414 113.006 21.0228 113.031 21.0155C113.058 21.0079 113.079 21.0054 113.099 21.0054V25.1664C113.816 25.1664 114.589 24.9674 115.243 24.5174L112.886 21.0885ZM113.099 21.0054C113.275 21.0054 113.622 21.0732 113.919 21.3848C114.207 21.6871 114.231 21.9919 114.231 22.054H110.07C110.07 22.7818 110.285 23.6025 110.906 24.2544C111.536 24.9155 112.358 25.1664 113.099 25.1664V21.0054ZM114.231 22.054V19.058H110.07V22.054H114.231ZM112.15 21.1385H114.214V16.9775H112.15V21.1385ZM116.295 19.058V16.6945H112.134V19.058H116.295ZM114.214 14.614H112.15V18.7751H114.214V14.614ZM114.231 16.6945V14.3477H110.07V16.6945H114.231ZM112.15 12.2672H108.988V16.4282H112.15V12.2672ZM106.907 14.3477V16.6945H111.069V14.3477H106.907ZM108.988 14.614H107.673V18.7751H108.988V14.614ZM105.593 16.6945V19.058H109.754V16.6945H105.593ZM107.673 21.1385H108.988V16.9775H107.673V21.1385ZM106.907 19.058V22.0873H111.069V19.058H106.907ZM106.907 22.0873C106.907 23.6515 107.375 25.1419 108.548 26.2135C109.688 27.2555 111.183 27.6131 112.65 27.6131V23.4521C111.803 23.4521 111.467 23.2438 111.355 23.1415C111.275 23.0689 111.069 22.8366 111.069 22.0873H106.907ZM112.65 27.6131C113.684 27.6131 114.948 27.418 115.964 26.7719L113.73 23.2614C113.647 23.3143 113.279 23.4521 112.65 23.4521V27.6131ZM116.808 24.3234L116.026 22.1097L112.103 23.4962L112.885 25.7099L116.808 24.3234ZM116.233 25.3828H114.152C114.152 26.5319 115.084 27.4633 116.233 27.4633V25.3828ZM119.395 25.3828V27.4633C120.544 27.4633 121.476 26.5319 121.476 25.3828H119.395ZM119.395 16.3616H121.476C121.476 15.2126 120.544 14.2811 119.395 14.2811V16.3616ZM116.233 16.3616V14.2811C115.084 14.2811 114.152 15.2126 114.152 16.3616H116.233ZM117.814 17.4435C118.834 17.4435 119.842 17.1179 120.619 16.408C121.408 15.688 121.825 14.6885 121.825 13.632H117.664C117.664 13.6133 117.668 13.565 117.696 13.5013C117.723 13.4372 117.765 13.3796 117.813 13.3359C117.916 13.2419 117.959 13.2825 117.814 13.2825V17.4435ZM121.825 13.632C121.825 12.5602 121.376 11.5723 120.571 10.8817C119.788 10.2102 118.795 9.92032 117.814 9.92032V14.0814C117.998 14.0814 117.97 14.1327 117.861 14.0396C117.808 13.9936 117.753 13.9259 117.714 13.8399C117.674 13.7538 117.664 13.6785 117.664 13.632H121.825ZM117.814 9.92032C115.723 9.92032 113.803 11.3732 113.803 13.6819H117.964C117.964 13.7277 117.954 13.7933 117.922 13.8653C117.89 13.9372 117.845 13.9951 117.799 14.0359C117.702 14.1227 117.668 14.0814 117.814 14.0814V9.92032ZM113.803 13.6819C113.803 15.9906 115.723 17.4435 117.814 17.4435V13.2825C117.668 13.2825 117.702 13.2411 117.799 13.328C117.845 13.3687 117.89 13.4266 117.922 13.4985C117.954 13.5705 117.964 13.6361 117.964 13.6819H113.803ZM116.233 27.4633H119.395V23.3023H116.233V27.4633ZM121.476 25.3828V16.3616H117.315V25.3828H121.476ZM119.395 14.2811H116.233V18.4422H119.395V14.2811ZM114.152 16.3616V25.3828H118.313V16.3616H114.152ZM130.954 25.3828V27.4633C131.741 27.4633 132.46 27.0196 132.813 26.3165C133.166 25.6134 133.093 24.7713 132.623 24.1403L130.954 25.3828ZM127.509 20.7557L125.85 19.4994C125.291 20.2373 125.287 21.2558 125.84 21.9983L127.509 20.7557ZM130.838 16.3616L132.496 17.618C132.973 16.9884 133.052 16.143 132.701 15.4357C132.349 14.7284 131.627 14.2811 130.838 14.2811V16.3616ZM127.492 16.3616V14.2811C126.828 14.2811 126.203 14.5984 125.812 15.135L127.492 16.3616ZM125.828 18.6419L124.124 19.8358C124.509 20.3857 125.136 20.7158 125.808 20.7223C126.479 20.7288 127.112 20.4109 127.508 19.8685L125.828 18.6419ZM124.23 16.3616L125.934 15.1677C125.544 14.612 124.908 14.2811 124.23 14.2811V16.3616ZM120.668 16.3616V14.2811C119.883 14.2811 119.165 14.7231 118.811 15.424C118.457 16.1249 118.528 16.9653 118.994 17.5971L120.668 16.3616ZM123.997 20.8722L125.653 22.1313C126.212 21.3959 126.219 20.38 125.671 19.6368L123.997 20.8722ZM120.568 25.3828L118.912 24.1238C118.433 24.7531 118.353 25.5991 118.704 26.3072C119.055 27.0154 119.778 27.4633 120.568 27.4633V25.3828ZM123.997 25.3828V27.4633C124.66 27.4633 125.283 27.1472 125.675 26.6121L123.997 25.3828ZM125.728 23.0193L127.446 21.8458C127.065 21.2882 126.437 20.9502 125.762 20.9391C125.087 20.928 124.448 21.2452 124.049 21.79L125.728 23.0193ZM127.342 25.3828L125.624 26.5564C126.012 27.1239 126.655 27.4633 127.342 27.4633V25.3828ZM132.623 24.1403L129.177 19.5132L125.84 21.9983L129.285 26.6254L132.623 24.1403ZM129.167 22.0121L132.496 17.618L129.179 15.1053L125.85 19.4994L129.167 22.0121ZM130.838 14.2811H127.492V18.4422H130.838V14.2811ZM125.812 15.135L124.147 17.4153L127.508 19.8685L129.173 17.5883L125.812 15.135ZM127.532 17.448L125.934 15.1677L122.526 17.5556L124.124 19.8358L127.532 17.448ZM124.23 14.2811H120.668V18.4422H124.23V14.2811ZM118.994 17.5971L122.323 22.1077L125.671 19.6368L122.342 15.1262L118.994 17.5971ZM122.34 19.6132L118.912 24.1238L122.224 26.6419L125.653 22.1313L122.34 19.6132ZM120.568 27.4633H123.997V23.3023H120.568V27.4633ZM125.675 26.6121L127.406 24.2487L124.049 21.79L122.318 24.1535L125.675 26.6121ZM124.01 24.1929L125.624 26.5564L129.06 24.2093L127.446 21.8458L124.01 24.1929ZM127.342 27.4633H130.954V23.3023H127.342V27.4633Z" fill="url(#paint5_linear_330_858)"/>
</g>
<path d="M44.9507 25.3828H48.2463V13.7318H44.9507V25.3828ZM56.483 16.2118C55.3512 16.2118 54.3359 16.5947 53.6202 17.3436V16.3616H50.6076V25.3828H53.77V21.022C53.77 19.524 54.5523 18.8916 55.5676 18.8916C56.483 18.8916 57.0489 19.4408 57.0489 20.7391V25.3828H60.2113V20.2231C60.2113 17.4269 58.5968 16.2118 56.483 16.2118ZM65.8086 16.4948C65.8086 15.6959 66.1914 15.313 66.8572 15.313C67.19 15.313 67.5396 15.4296 67.8059 15.5794L68.5882 13.349C68.0722 13.0328 67.2566 12.883 66.491 12.883C64.0776 12.883 62.7294 14.2978 62.7294 16.4615V16.6945H61.4145V19.058H62.7294V25.3828H65.8918V19.058H67.9557V16.6945H65.8086V16.4948ZM73.7211 25.5326C76.7004 25.5326 78.8142 23.5852 78.8142 20.8556C78.8142 18.1426 76.7004 16.2118 73.7211 16.2118C70.7751 16.2118 68.6279 18.1426 68.6279 20.8556C68.6279 23.5852 70.7751 25.5326 73.7211 25.5326ZM73.7211 23.0193C72.6559 23.0193 71.8236 22.2371 71.8236 20.8556C71.8236 19.4908 72.6559 18.7251 73.7211 18.7251C74.803 18.7251 75.6185 19.4908 75.6185 20.8556C75.6185 22.2371 74.803 23.0193 73.7211 23.0193ZM92.1964 16.2118C90.8982 16.2118 89.783 16.7278 89.0673 17.6266C88.4348 16.6612 87.3863 16.2118 86.1546 16.2118C85.0894 16.2118 84.1406 16.578 83.4582 17.3104V16.3616H80.4456V25.3828H83.608V20.9055C83.608 19.5074 84.2738 18.8916 85.2059 18.8916C86.0547 18.8916 86.5707 19.4408 86.5707 20.7391V25.3828H89.7331V20.9055C89.7331 19.5074 90.3989 18.8916 91.3143 18.8916C92.1465 18.8916 92.6791 19.4408 92.6791 20.7391V25.3828H95.8415V20.2231C95.8415 17.4269 94.2936 16.2118 92.1964 16.2118ZM101.849 16.2118C100.434 16.2118 98.9028 16.578 97.8708 17.2604L98.9361 19.4075C99.5519 18.9248 100.517 18.6253 101.383 18.6253C102.631 18.6253 103.247 19.1412 103.297 20.0567H101.499C98.703 20.0567 97.488 21.0886 97.488 22.753C97.488 24.3176 98.6864 25.5326 100.85 25.5326C102.165 25.5326 103.064 25.0832 103.513 24.2177V25.3828H106.459V20.3729C106.459 17.5101 104.778 16.2118 101.849 16.2118ZM101.732 23.5353C100.983 23.5353 100.551 23.1525 100.551 22.6199C100.551 22.0706 100.917 21.7044 101.932 21.7044H103.297V22.4867C103.047 23.2024 102.431 23.5353 101.732 23.5353ZM114.065 22.803C113.798 22.986 113.449 23.0859 113.099 23.0859C112.533 23.0859 112.15 22.7197 112.15 22.054V19.058H114.214V16.6945H112.15V14.3477H108.988V16.6945H107.673V19.058H108.988V22.0873C108.988 24.4008 110.336 25.5326 112.65 25.5326C113.482 25.5326 114.298 25.3662 114.847 25.0166L114.065 22.803ZM117.814 15.363C118.979 15.363 119.745 14.6306 119.745 13.632C119.745 12.6833 118.979 12.0008 117.814 12.0008C116.649 12.0008 115.883 12.7332 115.883 13.6819C115.883 14.6306 116.649 15.363 117.814 15.363ZM116.233 25.3828H119.395V16.3616H116.233V25.3828ZM130.954 25.3828L127.509 20.7557L130.838 16.3616H127.492L125.828 18.6419L124.23 16.3616H120.668L123.997 20.8722L120.568 25.3828H123.997L125.728 23.0193L127.342 25.3828H130.954Z" fill="white"/>
<path d="M44.9507 25.3828H44.2226C44.2226 25.785 44.5486 26.111 44.9507 26.111V25.3828ZM48.2463 25.3828V26.111C48.6485 26.111 48.9745 25.785 48.9745 25.3828H48.2463ZM48.2463 13.7318H48.9745C48.9745 13.3297 48.6485 13.0037 48.2463 13.0037V13.7318ZM44.9507 13.7318V13.0037C44.5486 13.0037 44.2226 13.3297 44.2226 13.7318H44.9507ZM44.9507 26.111H48.2463V24.6546H44.9507V26.111ZM48.9745 25.3828V13.7318H47.5181V25.3828H48.9745ZM48.2463 13.0037H44.9507V14.46H48.2463V13.0037ZM44.2226 13.7318V25.3828H45.6789V13.7318H44.2226ZM53.6202 17.3436H52.892C52.892 17.6412 53.073 17.9088 53.3492 18.0195C53.6253 18.1303 53.9411 18.0618 54.1466 17.8467L53.6202 17.3436ZM53.6202 16.3616H54.3484C54.3484 15.9595 54.0223 15.6335 53.6202 15.6335V16.3616ZM50.6076 16.3616V15.6335C50.2054 15.6335 49.8794 15.9595 49.8794 16.3616H50.6076ZM50.6076 25.3828H49.8794C49.8794 25.785 50.2054 26.111 50.6076 26.111V25.3828ZM53.77 25.3828V26.111C54.1721 26.111 54.4982 25.785 54.4982 25.3828H53.77ZM57.0489 25.3828H56.3207C56.3207 25.785 56.6467 26.111 57.0489 26.111V25.3828ZM60.2113 25.3828V26.111C60.6135 26.111 60.9395 25.785 60.9395 25.3828H60.2113ZM56.483 15.4837C55.187 15.4837 53.9691 15.9245 53.0937 16.8406L54.1466 17.8467C54.7027 17.2648 55.5153 16.94 56.483 16.94V15.4837ZM54.3484 17.3436V16.3616H52.892V17.3436H54.3484ZM53.6202 15.6335H50.6076V17.0898H53.6202V15.6335ZM49.8794 16.3616V25.3828H51.3358V16.3616H49.8794ZM50.6076 26.111H53.77V24.6546H50.6076V26.111ZM54.4982 25.3828V21.022H53.0418V25.3828H54.4982ZM54.4982 21.022C54.4982 20.3945 54.661 20.0626 54.8203 19.892C54.9746 19.7267 55.2124 19.6197 55.5676 19.6197V18.1634C54.9074 18.1634 54.2464 18.3727 53.7558 18.8981C53.2701 19.4182 53.0418 20.1516 53.0418 21.022H54.4982ZM55.5676 19.6197C55.8756 19.6197 56.0167 19.7064 56.0978 19.8014C56.1968 19.9173 56.3207 20.1801 56.3207 20.7391H57.7771C57.7771 19.9998 57.618 19.3388 57.2052 18.8555C56.7745 18.3513 56.1749 18.1634 55.5676 18.1634V19.6197ZM56.3207 20.7391V25.3828H57.7771V20.7391H56.3207ZM57.0489 26.111H60.2113V24.6546H57.0489V26.111ZM60.9395 25.3828V20.2231H59.4831V25.3828H60.9395ZM60.9395 20.2231C60.9395 18.6842 60.492 17.4729 59.649 16.6483C58.8104 15.828 57.6754 15.4837 56.483 15.4837V16.94C57.4044 16.94 58.1336 17.2032 58.6306 17.6894C59.1234 18.1714 59.4831 18.9657 59.4831 20.2231H60.9395ZM67.8059 15.5794L67.4489 16.214C67.6365 16.3196 67.8613 16.3367 68.0628 16.2607C68.2642 16.1848 68.4218 16.0235 68.493 15.8204L67.8059 15.5794ZM68.5882 13.349L69.2753 13.59C69.3888 13.2664 69.2611 12.9074 68.9687 12.7282L68.5882 13.349ZM62.7294 16.6945V17.4227C63.1316 17.4227 63.4576 17.0967 63.4576 16.6945H62.7294ZM61.4145 16.6945V15.9663C61.0123 15.9663 60.6863 16.2924 60.6863 16.6945H61.4145ZM61.4145 19.058H60.6863C60.6863 19.4602 61.0123 19.7862 61.4145 19.7862V19.058ZM62.7294 19.058H63.4576C63.4576 18.6558 63.1316 18.3298 62.7294 18.3298V19.058ZM62.7294 25.3828H62.0012C62.0012 25.785 62.3272 26.111 62.7294 26.111V25.3828ZM65.8918 25.3828V26.111C66.294 26.111 66.62 25.785 66.62 25.3828H65.8918ZM65.8918 19.058V18.3298C65.4896 18.3298 65.1636 18.6558 65.1636 19.058H65.8918ZM67.9557 19.058V19.7862C68.3578 19.7862 68.6839 19.4602 68.6839 19.058H67.9557ZM67.9557 16.6945H68.6839C68.6839 16.2924 68.3578 15.9663 67.9557 15.9663V16.6945ZM65.8086 16.6945H65.0804C65.0804 17.0967 65.4064 17.4227 65.8086 17.4227V16.6945ZM66.5368 16.4948C66.5368 16.2005 66.6078 16.1097 66.6205 16.0959C66.623 16.0931 66.6637 16.0412 66.8572 16.0412V14.5849C66.3848 14.5849 65.9013 14.7244 65.5459 15.1128C65.2007 15.4901 65.0804 15.9901 65.0804 16.4948H66.5368ZM66.8572 16.0412C67.0361 16.0412 67.2633 16.1096 67.4489 16.214L68.1629 14.9447C67.8159 14.7495 67.344 14.5849 66.8572 14.5849V16.0412ZM68.493 15.8204L69.2753 13.59L67.901 13.108L67.1187 15.3383L68.493 15.8204ZM68.9687 12.7282C68.2877 12.3108 67.3159 12.1548 66.491 12.1548V13.6112C67.1973 13.6112 67.8566 13.7548 68.2076 13.9699L68.9687 12.7282ZM66.491 12.1548C65.1424 12.1548 64.002 12.5526 63.1962 13.34C62.3892 14.1287 62.0012 15.2268 62.0012 16.4615H63.4576C63.4576 15.5325 63.7437 14.8413 64.2141 14.3816C64.6857 13.9207 65.4262 13.6112 66.491 13.6112V12.1548ZM62.0012 16.4615V16.6945H63.4576V16.4615H62.0012ZM62.7294 15.9663H61.4145V17.4227H62.7294V15.9663ZM60.6863 16.6945V19.058H62.1427V16.6945H60.6863ZM61.4145 19.7862H62.7294V18.3298H61.4145V19.7862ZM62.0012 19.058V25.3828H63.4576V19.058H62.0012ZM62.7294 26.111H65.8918V24.6546H62.7294V26.111ZM66.62 25.3828V19.058H65.1636V25.3828H66.62ZM65.8918 19.7862H67.9557V18.3298H65.8918V19.7862ZM68.6839 19.058V16.6945H67.2275V19.058H68.6839ZM67.9557 15.9663H65.8086V17.4227H67.9557V15.9663ZM66.5368 16.6945V16.4948H65.0804V16.6945H66.5368ZM73.7211 26.2608C77.0436 26.2608 79.5424 24.044 79.5424 20.8556H78.086C78.086 23.1265 76.3572 24.8044 73.7211 24.8044V26.2608ZM79.5424 20.8556C79.5424 17.6789 77.0382 15.4837 73.7211 15.4837V16.94C76.3626 16.94 78.086 18.6062 78.086 20.8556H79.5424ZM73.7211 15.4837C70.4406 15.4837 67.8998 17.6759 67.8998 20.8556H69.3561C69.3561 18.6092 71.1095 16.94 73.7211 16.94V15.4837ZM67.8998 20.8556C67.8998 24.047 70.4352 26.2608 73.7211 26.2608V24.8044C71.1149 24.8044 69.3561 23.1235 69.3561 20.8556H67.8998ZM73.7211 22.2911C73.3729 22.2911 73.0985 22.1672 72.907 21.9606C72.7134 21.7516 72.5518 21.3994 72.5518 20.8556H71.0955C71.0955 21.6933 71.35 22.4229 71.8388 22.9504C72.3297 23.4803 73.004 23.7475 73.7211 23.7475V22.2911ZM72.5518 20.8556C72.5518 20.3226 72.7118 19.9807 72.9028 19.778C73.0926 19.5766 73.368 19.4533 73.7211 19.4533V17.9969C73.009 17.9969 72.3356 18.2564 71.843 18.7791C71.3516 19.3004 71.0955 20.0237 71.0955 20.8556H72.5518ZM73.7211 19.4533C74.0848 19.4533 74.3583 19.5781 74.5441 19.7764C74.7322 19.9772 74.8903 20.3187 74.8903 20.8556H76.3467C76.3467 20.0277 76.0971 19.3039 75.6069 18.7807C75.1145 18.255 74.4393 17.9969 73.7211 17.9969V19.4533ZM74.8903 20.8556C74.8903 21.4033 74.7307 21.755 74.5399 21.9622C74.3524 22.1657 74.0798 22.2911 73.7211 22.2911V23.7475C74.4442 23.7475 75.1203 23.4818 75.6112 22.9488C76.0986 22.4195 76.3467 21.6893 76.3467 20.8556H74.8903ZM89.0673 17.6266L88.4582 18.0257C88.5863 18.2211 88.8003 18.3432 89.0337 18.354C89.2671 18.3648 89.4914 18.263 89.637 18.0802L89.0673 17.6266ZM83.4582 17.3104H82.73C82.73 17.6096 82.9131 17.8783 83.1915 17.9879C83.4699 18.0975 83.787 18.0257 83.991 17.8068L83.4582 17.3104ZM83.4582 16.3616H84.1864C84.1864 15.9595 83.8604 15.6335 83.4582 15.6335V16.3616ZM80.4456 16.3616V15.6335C80.0434 15.6335 79.7174 15.9595 79.7174 16.3616H80.4456ZM80.4456 25.3828H79.7174C79.7174 25.785 80.0434 26.111 80.4456 26.111V25.3828ZM83.608 25.3828V26.111C84.0102 26.111 84.3362 25.785 84.3362 25.3828H83.608ZM86.5707 25.3828H85.8425C85.8425 25.785 86.1685 26.111 86.5707 26.111V25.3828ZM89.7331 25.3828V26.111C90.1353 26.111 90.4613 25.785 90.4613 25.3828H89.7331ZM92.6791 25.3828H91.9509C91.9509 25.785 92.277 26.111 92.6791 26.111V25.3828ZM95.8415 25.3828V26.111C96.2437 26.111 96.5697 25.785 96.5697 25.3828H95.8415ZM92.1964 15.4837C90.7009 15.4837 89.3661 16.0824 88.4977 17.173L89.637 18.0802C90.1999 17.3732 91.0955 16.94 92.1964 16.94V15.4837ZM89.6764 17.2275C88.8775 16.0082 87.5674 15.4837 86.1546 15.4837V16.94C87.2052 16.94 87.9922 17.3143 88.4582 18.0257L89.6764 17.2275ZM86.1546 15.4837C84.9182 15.4837 83.7654 15.9126 82.9255 16.8139L83.991 17.8068C84.5159 17.2434 85.2605 16.94 86.1546 16.94V15.4837ZM84.1864 17.3104V16.3616H82.73V17.3104H84.1864ZM83.4582 15.6335H80.4456V17.0898H83.4582V15.6335ZM79.7174 16.3616V25.3828H81.1738V16.3616H79.7174ZM80.4456 26.111H83.608V24.6546H80.4456V26.111ZM84.3362 25.3828V20.9055H82.8798V25.3828H84.3362ZM84.3362 20.9055C84.3362 20.3119 84.4782 20.0017 84.6093 19.8493C84.7274 19.7121 84.9075 19.6197 85.2059 19.6197V18.1634C84.5722 18.1634 83.9534 18.3789 83.5055 18.8992C83.0708 19.4043 82.8798 20.101 82.8798 20.9055H84.3362ZM85.2059 19.6197C85.4615 19.6197 85.5673 19.6934 85.6337 19.778C85.7258 19.8953 85.8425 20.1674 85.8425 20.7391H87.2989C87.2989 20.0125 87.1576 19.3609 86.7795 18.8789C86.3757 18.3644 85.7991 18.1634 85.2059 18.1634V19.6197ZM85.8425 20.7391V25.3828H87.2989V20.7391H85.8425ZM86.5707 26.111H89.7331V24.6546H86.5707V26.111ZM90.4613 25.3828V20.9055H89.0049V25.3828H90.4613ZM90.4613 20.9055C90.4613 20.3121 90.6032 20.0004 90.734 19.8473C90.8517 19.7096 91.028 19.6197 91.3143 19.6197V18.1634C90.6852 18.1634 90.0709 18.3814 89.6268 18.9012C89.1959 19.4055 89.0049 20.1008 89.0049 20.9055H90.4613ZM91.3143 19.6197C91.5582 19.6197 91.6672 19.6913 91.7379 19.7805C91.832 19.8993 91.9509 20.1722 91.9509 20.7391H93.4073C93.4073 20.0077 93.26 19.3568 92.8797 18.8765C92.476 18.3665 91.9027 18.1634 91.3143 18.1634V19.6197ZM91.9509 20.7391V25.3828H93.4073V20.7391H91.9509ZM92.6791 26.111H95.8415V24.6546H92.6791V26.111ZM96.5697 25.3828V20.2231H95.1133V25.3828H96.5697ZM96.5697 20.2231C96.5697 18.6928 96.1438 17.4827 95.322 16.6556C94.5011 15.8295 93.3828 15.4837 92.1964 15.4837V16.94C93.1073 16.94 93.8115 17.2017 94.2889 17.6821C94.7653 18.1616 95.1133 18.9572 95.1133 20.2231H96.5697ZM97.8708 17.2604L97.4692 16.653C97.1627 16.8557 97.0552 17.2549 97.2185 17.5841L97.8708 17.2604ZM98.9361 19.4075L98.2837 19.7312C98.3811 19.9274 98.5616 20.0693 98.7752 20.1177C98.9888 20.1661 99.2129 20.1158 99.3853 19.9807L98.9361 19.4075ZM103.297 20.0567V20.7848C103.497 20.7848 103.688 20.7026 103.826 20.5573C103.963 20.4121 104.035 20.2167 104.024 20.017L103.297 20.0567ZM103.513 24.2177H104.241C104.241 23.8821 104.012 23.5899 103.686 23.5103C103.36 23.4307 103.022 23.5843 102.867 23.8822L103.513 24.2177ZM103.513 25.3828H102.785C102.785 25.785 103.111 26.111 103.513 26.111V25.3828ZM106.459 25.3828V26.111C106.861 26.111 107.187 25.785 107.187 25.3828H106.459ZM103.297 21.7044H104.025C104.025 21.3023 103.699 20.9763 103.297 20.9763V21.7044ZM103.297 22.4867L103.984 22.7266C104.011 22.6495 104.025 22.5684 104.025 22.4867H103.297ZM101.849 15.4837C100.335 15.4837 98.6524 15.8706 97.4692 16.653L98.2725 17.8678C99.1532 17.2854 100.533 16.94 101.849 16.94V15.4837ZM97.2185 17.5841L98.2837 19.7312L99.5884 19.0839L98.5231 16.9368L97.2185 17.5841ZM99.3853 19.9807C99.8532 19.6139 100.653 19.3534 101.383 19.3534V17.8971C100.381 17.8971 99.2506 18.2358 98.4869 18.8344L99.3853 19.9807ZM101.383 19.3534C101.921 19.3534 102.205 19.4667 102.345 19.5747C102.46 19.6635 102.554 19.8052 102.57 20.0963L104.024 20.017C103.99 19.3927 103.75 18.8187 103.233 18.4206C102.741 18.0418 102.093 17.8971 101.383 17.8971V19.3534ZM103.297 19.3285H101.499V20.7848H103.297V19.3285ZM101.499 19.3285C100.032 19.3285 98.8521 19.5958 98.0222 20.1879C97.1506 20.8096 96.7598 21.7203 96.7598 22.753H98.2162C98.2162 22.1213 98.4329 21.6838 98.8679 21.3735C99.3446 21.0335 100.171 20.7848 101.499 20.7848V19.3285ZM96.7598 22.753C96.7598 23.7309 97.1396 24.6306 97.8779 25.2773C98.6096 25.9182 99.6344 26.2608 100.85 26.2608V24.8044C99.9022 24.8044 99.2459 24.5395 98.8375 24.1818C98.4357 23.8298 98.2162 23.3397 98.2162 22.753H96.7598ZM100.85 26.2608C102.332 26.2608 103.543 25.7405 104.159 24.5533L102.867 23.8822C102.585 24.4259 101.998 24.8044 100.85 24.8044V26.2608ZM102.785 24.2177V25.3828H104.241V24.2177H102.785ZM103.513 26.111H106.459V24.6546H103.513V26.111ZM107.187 25.3828V20.3729H105.731V25.3828H107.187ZM107.187 20.3729C107.187 18.7963 106.719 17.5275 105.73 16.6688C104.759 15.8268 103.406 15.4837 101.849 15.4837V16.94C103.221 16.94 104.173 17.246 104.775 17.7688C105.359 18.2749 105.731 19.0867 105.731 20.3729H107.187ZM101.732 22.8071C101.475 22.8071 101.356 22.7413 101.317 22.7098C101.292 22.6897 101.279 22.672 101.279 22.6199H99.8224C99.8224 23.1003 100.026 23.5403 100.404 23.8448C100.769 24.1379 101.24 24.2635 101.732 24.2635V22.8071ZM101.279 22.6199C101.279 22.5914 101.281 22.572 101.283 22.5599C101.285 22.554 101.286 22.5499 101.286 22.5474C101.287 22.5462 101.287 22.5453 101.287 22.5447C101.288 22.5442 101.288 22.5439 101.288 22.5439C101.288 22.5439 101.288 22.544 101.287 22.5444C101.287 22.5447 101.287 22.5452 101.287 22.5457C101.286 22.5468 101.285 22.5478 101.285 22.5486C101.283 22.5505 101.284 22.5485 101.291 22.5434C101.328 22.5166 101.489 22.4326 101.932 22.4326V20.9763C101.359 20.9763 100.83 21.0754 100.43 21.369C99.9857 21.6948 99.8224 22.1659 99.8224 22.6199H101.279ZM101.932 22.4326H103.297V20.9763H101.932V22.4326ZM102.569 21.7044V22.4867H104.025V21.7044H102.569ZM102.609 22.2469C102.482 22.613 102.187 22.8071 101.732 22.8071V24.2635C102.676 24.2635 103.613 23.7919 103.984 22.7266L102.609 22.2469ZM114.064 22.803L114.751 22.5603C114.676 22.3468 114.505 22.1805 114.29 22.1105C114.074 22.0404 113.839 22.0746 113.652 22.2029L114.064 22.803ZM112.15 19.058V18.3298C111.748 18.3298 111.422 18.6558 111.422 19.058H112.15ZM114.214 19.058V19.7862C114.616 19.7862 114.942 19.4602 114.942 19.058H114.214ZM114.214 16.6945H114.942C114.942 16.2924 114.616 15.9663 114.214 15.9663V16.6945ZM112.15 16.6945H111.422C111.422 17.0967 111.748 17.4227 112.15 17.4227V16.6945ZM112.15 14.3477H112.879C112.879 13.9455 112.553 13.6195 112.15 13.6195V14.3477ZM108.988 14.3477V13.6195C108.586 13.6195 108.26 13.9455 108.26 14.3477H108.988ZM108.988 16.6945V17.4227C109.39 17.4227 109.716 17.0967 109.716 16.6945H108.988ZM107.673 16.6945V15.9663C107.271 15.9663 106.945 16.2924 106.945 16.6945H107.673ZM107.673 19.058H106.945C106.945 19.4602 107.271 19.7862 107.673 19.7862V19.058ZM108.988 19.058H109.716C109.716 18.6558 109.39 18.3298 108.988 18.3298V19.058ZM114.847 25.0166L115.238 25.631C115.524 25.449 115.646 25.0937 115.533 24.774L114.847 25.0166ZM113.652 22.2029C113.522 22.2926 113.32 22.3577 113.099 22.3577V23.8141C113.577 23.8141 114.075 23.6795 114.477 23.403L113.652 22.2029ZM113.099 22.3577C112.977 22.3577 112.944 22.322 112.94 22.3174C112.932 22.3096 112.879 22.2486 112.879 22.054H111.422C111.422 22.5251 111.56 22.98 111.885 23.3218C112.214 23.6668 112.656 23.8141 113.099 23.8141V22.3577ZM112.879 22.054V19.058H111.422V22.054H112.879ZM112.15 19.7862H114.214V18.3298H112.15V19.7862ZM114.942 19.058V16.6945H113.486V19.058H114.942ZM114.214 15.9663H112.15V17.4227H114.214V15.9663ZM112.879 16.6945V14.3477H111.422V16.6945H112.879ZM112.15 13.6195H108.988V15.0759H112.15V13.6195ZM108.26 14.3477V16.6945H109.716V14.3477H108.26ZM108.988 15.9663H107.673V17.4227H108.988V15.9663ZM106.945 16.6945V19.058H108.401V16.6945H106.945ZM107.673 19.7862H108.988V18.3298H107.673V19.7862ZM108.26 19.058V22.0873H109.716V19.058H108.26ZM108.26 22.0873C108.26 23.3866 108.643 24.4681 109.46 25.2151C110.266 25.9517 111.385 26.2608 112.65 26.2608V24.8044C111.601 24.8044 110.889 24.5476 110.442 24.1399C110.008 23.7426 109.716 23.1014 109.716 22.0873H108.26ZM112.65 26.2608C113.553 26.2608 114.525 26.0843 115.238 25.631L114.456 24.4023C114.07 24.648 113.411 24.8044 112.65 24.8044V26.2608ZM115.533 24.774L114.751 22.5603L113.378 23.0456L114.16 25.2593L115.533 24.774ZM116.233 25.3828H115.504C115.504 25.785 115.831 26.111 116.233 26.111V25.3828ZM119.395 25.3828V26.111C119.797 26.111 120.123 25.785 120.123 25.3828H119.395ZM119.395 16.3616H120.123C120.123 15.9595 119.797 15.6335 119.395 15.6335V16.3616ZM116.233 16.3616V15.6335C115.831 15.6335 115.504 15.9595 115.504 16.3616H116.233ZM117.814 16.0912C118.549 16.0912 119.216 15.8582 119.707 15.4096C120.202 14.9574 120.473 14.3263 120.473 13.632H119.016C119.016 13.9363 118.904 14.1707 118.725 14.3344C118.542 14.5016 118.243 14.6348 117.814 14.6348V16.0912ZM120.473 13.632C120.473 12.9485 120.191 12.3377 119.69 11.908C119.197 11.485 118.536 11.2727 117.814 11.2727V12.729C118.257 12.729 118.561 12.8579 118.742 13.0133C118.915 13.162 119.016 13.3667 119.016 13.632H120.473ZM117.814 11.2727C116.325 11.2727 115.155 12.2572 115.155 13.6819H116.611C116.611 13.2092 116.973 12.729 117.814 12.729V11.2727ZM115.155 13.6819C115.155 15.1066 116.325 16.0912 117.814 16.0912V14.6348C116.973 14.6348 116.611 14.1547 116.611 13.6819H115.155ZM116.233 26.111H119.395V24.6546H116.233V26.111ZM120.123 25.3828V16.3616H118.667V25.3828H120.123ZM119.395 15.6335H116.233V17.0898H119.395V15.6335ZM115.504 16.3616V25.3828H116.961V16.3616H115.504ZM130.954 25.3828V26.111C131.229 26.111 131.481 25.9557 131.605 25.7096C131.728 25.4635 131.703 25.1688 131.538 24.9479L130.954 25.3828ZM127.509 20.7557L126.928 20.316C126.733 20.5743 126.731 20.9307 126.925 21.1906L127.509 20.7557ZM130.838 16.3616L131.418 16.8014C131.585 16.581 131.613 16.2851 131.49 16.0376C131.367 15.79 131.114 15.6335 130.838 15.6335V16.3616ZM127.492 16.3616V15.6335C127.26 15.6335 127.041 15.7445 126.904 15.9323L127.492 16.3616ZM125.828 18.6419L125.231 19.0598C125.366 19.2522 125.586 19.3678 125.821 19.37C126.056 19.3723 126.277 19.261 126.416 19.0712L125.828 18.6419ZM124.23 16.3616L124.826 15.9438C124.69 15.7493 124.467 15.6335 124.23 15.6335V16.3616ZM120.668 16.3616V15.6335C120.393 15.6335 120.142 15.7882 120.018 16.0335C119.894 16.2788 119.919 16.5729 120.082 16.794L120.668 16.3616ZM123.997 20.8722L124.577 21.3129C124.772 21.0555 124.775 20.7 124.583 20.4398L123.997 20.8722ZM120.568 25.3828L119.988 24.9421C119.821 25.1624 119.793 25.4585 119.916 25.7064C120.039 25.9542 120.291 26.111 120.568 26.111V25.3828ZM123.997 25.3828V26.111C124.229 26.111 124.447 26.0003 124.584 25.8131L123.997 25.3828ZM125.728 23.0193L126.329 22.6086C126.196 22.4134 125.976 22.2951 125.74 22.2912C125.503 22.2874 125.28 22.3984 125.14 22.5891L125.728 23.0193ZM127.342 25.3828L126.741 25.7936C126.877 25.9922 127.102 26.111 127.342 26.111V25.3828ZM131.538 24.9479L128.093 20.3208L126.925 21.1906L130.37 25.8177L131.538 24.9479ZM128.089 21.1954L131.418 16.8014L130.257 15.9219L126.928 20.316L128.089 21.1954ZM130.838 15.6335H127.492V17.0898H130.838V15.6335ZM126.904 15.9323L125.24 18.2126L126.416 19.0712L128.08 16.791L126.904 15.9323ZM126.424 18.224L124.826 15.9438L123.633 16.7795L125.231 19.0598L126.424 18.224ZM124.23 15.6335H120.668V17.0898H124.23V15.6335ZM120.082 16.794L123.411 21.3046L124.583 20.4398L121.254 15.9292L120.082 16.794ZM123.417 20.4316L119.988 24.9421L121.148 25.8235L124.577 21.3129L123.417 20.4316ZM120.568 26.111H123.997V24.6546H120.568V26.111ZM124.584 25.8131L126.315 23.4496L125.14 22.5891L123.409 24.9525L124.584 25.8131ZM125.127 23.4301L126.741 25.7936L127.944 24.9721L126.329 22.6086L125.127 23.4301ZM127.342 26.111H130.954V24.6546H127.342V26.111Z" fill="url(#paint6_linear_330_858)"/>
<defs>
<filter id="filter0_f_330_858" x="4.25585" y="0.222034" width="39.9359" height="36.6963" filterUnits="userSpaceOnUse" color-interpolation-filters="sRGB">
<feFlood flood-opacity="0" result="BackgroundImageFix"/>
<feBlend mode="normal" in="SourceGraphic" in2="BackgroundImageFix" result="shape"/>
<feGaussianBlur stdDeviation="3.12079" result="effect1_foregroundBlur_330_858"/>
</filter>
<filter id="filter1_f_330_858" x="7.85" y="3.32485" width="32.2867" height="18.2602" filterUnits="userSpaceOnUse" color-interpolation-filters="sRGB">
<feFlood flood-opacity="0" result="BackgroundImageFix"/>
<feBlend mode="normal" in="SourceGraphic" in2="BackgroundImageFix" result="shape"/>
<feGaussianBlur stdDeviation="2.1375" result="effect1_foregroundBlur_330_858"/>
</filter>
<filter id="filter2_d_330_858" x="0.0947037" y="6.77668" width="48.2583" height="42.625" filterUnits="userSpaceOnUse" color-interpolation-filters="sRGB">
<feFlood flood-opacity="0" result="BackgroundImageFix"/>
<feColorMatrix in="SourceAlpha" type="matrix" values="0 0 0 0 0 0 0 0 0 0 0 0 0 0 0 0 0 0 127 0" result="hardAlpha"/>
<feOffset dy="8.32212"/>
<feGaussianBlur stdDeviation="6.24159"/>
<feColorMatrix type="matrix" values="0 0 0 0 0 0 0 0 0 0.580392 0 0 0 0 1 0 0 0 0.14 0"/>
<feBlend mode="normal" in2="BackgroundImageFix" result="effect1_dropShadow_330_858"/>
<feBlend mode="normal" in="SourceGraphic" in2="effect1_dropShadow_330_858" result="shape"/>
</filter>
<filter id="filter3_f_330_858" x="38.7091" y="5.75914" width="98.4866" height="26.0152" filterUnits="userSpaceOnUse" color-interpolation-filters="sRGB">
<feFlood flood-opacity="0" result="BackgroundImageFix"/>
<feBlend mode="normal" in="SourceGraphic" in2="BackgroundImageFix" result="shape"/>
<feGaussianBlur stdDeviation="3.12079" result="effect1_foregroundBlur_330_858"/>
</filter>
<linearGradient id="paint0_linear_330_858" x1="12.5778" y1="14.9895" x2="32.0796" y2="28.3851" gradientUnits="userSpaceOnUse">
<stop offset="0.0260417" stop-color="#00E0FF"/>
<stop offset="0.515625" stop-color="#0094FF"/>
<stop offset="1" stop-color="#781FFD"/>
</linearGradient>
<linearGradient id="paint1_linear_330_858" x1="12.9938" y1="12.483" x2="38.7378" y2="15.0316" gradientUnits="userSpaceOnUse">
<stop stop-color="#00A3FF"/>
<stop offset="0.339401" stop-color="#583FF1"/>
<stop offset="1" stop-color="#781FFD"/>
</linearGradient>
<linearGradient id="paint2_linear_330_858" x1="18.0028" y1="16.9133" x2="22.7988" y2="26.7488" gradientUnits="userSpaceOnUse">
<stop stop-color="#00E0FF"/>
<stop offset="0.445833" stop-color="#0094FF"/>
<stop offset="1" stop-color="#781FFD"/>
</linearGradient>
<linearGradient id="paint3_linear_330_858" x1="12.5779" y1="10.9377" x2="29.5805" y2="33.3646" gradientUnits="userSpaceOnUse">
<stop stop-color="#00E0FF"/>
<stop offset="0.445833" stop-color="#0094FF"/>
<stop offset="1" stop-color="#781FFD"/>
</linearGradient>
<linearGradient id="paint4_linear_330_858" x1="43.7855" y1="13.7452" x2="69.7505" y2="59.8081" gradientUnits="userSpaceOnUse">
<stop offset="0.0260417" stop-color="#00E0FF"/>
<stop offset="0.515625" stop-color="#0094FF"/>
<stop offset="1" stop-color="#781FFD"/>
</linearGradient>
<linearGradient id="paint5_linear_330_858" x1="45.3459" y1="10.1043" x2="136.889" y2="33.5102" gradientUnits="userSpaceOnUse">
<stop stop-color="#00A3FF"/>
<stop offset="0.339401" stop-color="#583FF1"/>
<stop offset="1" stop-color="#781FFD"/>
</linearGradient>
<linearGradient id="paint6_linear_330_858" x1="45.3459" y1="10.1043" x2="136.889" y2="33.5102" gradientUnits="userSpaceOnUse">
<stop stop-color="#31CEFF"/>
<stop offset="0.743749" stop-color="#781FFD"/>
<stop offset="0.963542" stop-color="#781FFD"/>
</linearGradient>
</defs>
</svg>
