<svg width="87" height="14" viewBox="0 0 87 14" fill="none" xmlns="http://www.w3.org/2000/svg">
<path d="M0.950741 13.3828H4.2463V1.73185H0.950741V13.3828ZM12.483 4.21184C11.3512 4.21184 10.3359 4.59466 9.62018 5.34365V4.36164H6.60757V13.3828H9.76998V9.02202C9.76998 7.52404 10.5523 6.89156 11.5676 6.89156C12.483 6.89156 13.0489 7.44082 13.0489 8.73907V13.3828H16.2113V8.2231C16.2113 5.42687 14.5968 4.21184 12.483 4.21184ZM21.8086 4.49479C21.8086 3.69587 22.1914 3.31305 22.8572 3.31305C23.19 3.31305 23.5396 3.42956 23.8059 3.57936L24.5882 1.34903C24.0722 1.03279 23.2566 0.882991 22.491 0.882991C20.0776 0.882991 18.7294 2.29775 18.7294 4.4615V4.69452H17.4145V7.058H18.7294V13.3828H21.8918V7.058H23.9557V4.69452H21.8086V4.49479ZM29.7211 13.5326C32.7004 13.5326 34.8142 11.5852 34.8142 8.85558C34.8142 6.14257 32.7004 4.21184 29.7211 4.21184C26.7751 4.21184 24.6279 6.14257 24.6279 8.85558C24.6279 11.5852 26.7751 13.5326 29.7211 13.5326ZM29.7211 11.0193C28.6559 11.0193 27.8236 10.2371 27.8236 8.85558C27.8236 7.49075 28.6559 6.72512 29.7211 6.72512C30.803 6.72512 31.6185 7.49075 31.6185 8.85558C31.6185 10.2371 30.803 11.0193 29.7211 11.0193ZM48.1964 4.21184C46.8982 4.21184 45.783 4.72781 45.0673 5.6266C44.4348 4.66123 43.3863 4.21184 42.1546 4.21184C41.0894 4.21184 40.1406 4.57801 39.4582 5.31036V4.36164H36.4456V13.3828H39.608V8.90551C39.608 7.5074 40.2738 6.89156 41.2059 6.89156C42.0547 6.89156 42.5707 7.44082 42.5707 8.73907V13.3828H45.7331V8.90551C45.7331 7.5074 46.3989 6.89156 47.3143 6.89156C48.1465 6.89156 48.6791 7.44082 48.6791 8.73907V13.3828H51.8415V8.2231C51.8415 5.42687 50.2936 4.21184 48.1964 4.21184ZM57.8488 4.21184C56.434 4.21184 54.9028 4.57801 53.8708 5.26042L54.9361 7.40753C55.5519 6.92485 56.5173 6.62525 57.3828 6.62525C58.6311 6.62525 59.2469 7.14122 59.2969 8.05666H57.4993C54.703 8.05666 53.488 9.0886 53.488 10.753C53.488 12.3176 54.6864 13.5326 56.8501 13.5326C58.165 13.5326 59.0638 13.0832 59.5132 12.2177V13.3828H62.4593V8.3729C62.4593 5.51009 60.7782 4.21184 57.8488 4.21184ZM57.7323 11.5353C56.9833 11.5353 56.5506 11.1525 56.5506 10.6199C56.5506 10.0706 56.9167 9.70444 57.932 9.70444H59.2969V10.4867C59.0472 11.2024 58.4314 11.5353 57.7323 11.5353ZM70.0645 10.803C69.7982 10.986 69.4487 11.0859 69.0991 11.0859C68.5332 11.0859 68.1504 10.7197 68.1504 10.054V7.058H70.2143V4.69452H68.1504V2.34768H64.988V4.69452H63.6731V7.058H64.988V10.0873C64.988 12.4008 66.3362 13.5326 68.6497 13.5326C69.482 13.5326 70.2975 13.3662 70.8468 13.0166L70.0645 10.803ZM73.8139 3.36298C74.979 3.36298 75.7446 2.63064 75.7446 1.63198C75.7446 0.683261 74.979 0.000846735 73.8139 0.000846735C72.6488 0.000846735 71.8831 0.733193 71.8831 1.68191C71.8831 2.63064 72.6488 3.36298 73.8139 3.36298ZM72.2327 13.3828H75.3951V4.36164H72.2327V13.3828ZM86.9541 13.3828L83.5088 8.75571L86.8376 4.36164H83.4921L81.8277 6.6419L80.2298 4.36164H76.668L79.9968 8.87222L76.5681 13.3828H79.9968L81.7278 11.0193L83.3423 13.3828H86.9541Z" fill="white"/>
<path d="M0.950741 13.3828H0.222556C0.222556 13.785 0.548575 14.111 0.950741 14.111V13.3828ZM4.2463 13.3828V14.111C4.64847 14.111 4.97448 13.785 4.97448 13.3828H4.2463ZM4.2463 1.73185H4.97448C4.97448 1.32968 4.64847 1.00366 4.2463 1.00366V1.73185ZM0.950741 1.73185V1.00366C0.548575 1.00366 0.222556 1.32968 0.222556 1.73185H0.950741ZM0.950741 14.111H4.2463V12.6546H0.950741V14.111ZM4.97448 13.3828V1.73185H3.51811V13.3828H4.97448ZM4.2463 1.00366H0.950741V2.46003H4.2463V1.00366ZM0.222556 1.73185V13.3828H1.67893V1.73185H0.222556ZM9.62018 5.34365H8.89199C8.89199 5.64118 9.07301 5.90879 9.34917 6.01952C9.62534 6.13026 9.94109 6.06184 10.1466 5.84672L9.62018 5.34365ZM9.62018 4.36164H10.3484C10.3484 3.95947 10.0223 3.63345 9.62018 3.63345V4.36164ZM6.60757 4.36164V3.63345C6.20541 3.63345 5.87939 3.95947 5.87939 4.36164H6.60757ZM6.60757 13.3828H5.87939C5.87939 13.785 6.20541 14.111 6.60757 14.111V13.3828ZM9.76998 13.3828V14.111C10.1721 14.111 10.4982 13.785 10.4982 13.3828H9.76998ZM13.0489 13.3828H12.3207C12.3207 13.785 12.6467 14.111 13.0489 14.111V13.3828ZM16.2113 13.3828V14.111C16.6135 14.111 16.9395 13.785 16.9395 13.3828H16.2113ZM12.483 3.48365C11.187 3.48365 9.96908 3.92449 9.09371 4.84057L10.1466 5.84672C10.7027 5.26482 11.5153 4.94002 12.483 4.94002V3.48365ZM10.3484 5.34365V4.36164H8.89199V5.34365H10.3484ZM9.62018 3.63345H6.60757V5.08982H9.62018V3.63345ZM5.87939 4.36164V13.3828H7.33576V4.36164H5.87939ZM6.60757 14.111H9.76998V12.6546H6.60757V14.111ZM10.4982 13.3828V9.02202H9.04179V13.3828H10.4982ZM10.4982 9.02202C10.4982 8.39446 10.661 8.06259 10.8203 7.89202C10.9746 7.72669 11.2124 7.61975 11.5676 7.61975V6.16337C10.9074 6.16337 10.2464 6.37268 9.75579 6.89808C9.2701 7.41824 9.04179 8.1516 9.04179 9.02202H10.4982ZM11.5676 7.61975C11.8756 7.61975 12.0167 7.70644 12.0978 7.80142C12.1968 7.9173 12.3207 8.18008 12.3207 8.73907H13.7771C13.7771 7.99981 13.618 7.33884 13.2052 6.85553C12.7745 6.35131 12.1749 6.16337 11.5676 6.16337V7.61975ZM12.3207 8.73907V13.3828H13.7771V8.73907H12.3207ZM13.0489 14.111H16.2113V12.6546H13.0489V14.111ZM16.9395 13.3828V8.2231H15.4831V13.3828H16.9395ZM16.9395 8.2231C16.9395 6.68424 16.492 5.4729 15.649 4.64833C14.8104 3.82796 13.6754 3.48365 12.483 3.48365V4.94002C13.4044 4.94002 14.1336 5.20323 14.6306 5.68943C15.1234 6.17144 15.4831 6.96573 15.4831 8.2231H16.9395ZM23.8059 3.57936L23.4489 4.21403C23.6365 4.31958 23.8613 4.33668 24.0628 4.26073C24.2642 4.18477 24.4218 4.02355 24.493 3.82037L23.8059 3.57936ZM24.5882 1.34903L25.2753 1.59004C25.3888 1.26639 25.2611 0.907405 24.9687 0.728177L24.5882 1.34903ZM18.7294 4.69452V5.42271C19.1316 5.42271 19.4576 5.09669 19.4576 4.69452H18.7294ZM17.4145 4.69452V3.96634C17.0123 3.96634 16.6863 4.29236 16.6863 4.69452H17.4145ZM17.4145 7.058H16.6863C16.6863 7.46017 17.0123 7.78619 17.4145 7.78619V7.058ZM18.7294 7.058H19.4576C19.4576 6.65584 19.1316 6.32982 18.7294 6.32982V7.058ZM18.7294 13.3828H18.0012C18.0012 13.785 18.3272 14.111 18.7294 14.111V13.3828ZM21.8918 13.3828V14.111C22.294 14.111 22.62 13.785 22.62 13.3828H21.8918ZM21.8918 7.058V6.32982C21.4896 6.32982 21.1636 6.65584 21.1636 7.058H21.8918ZM23.9557 7.058V7.78619C24.3578 7.78619 24.6839 7.46017 24.6839 7.058H23.9557ZM23.9557 4.69452H24.6839C24.6839 4.29236 24.3578 3.96634 23.9557 3.96634V4.69452ZM21.8086 4.69452H21.0804C21.0804 5.09669 21.4064 5.42271 21.8086 5.42271V4.69452ZM22.5368 4.49479C22.5368 4.20054 22.6078 4.10967 22.6205 4.09586C22.623 4.09308 22.6637 4.04123 22.8572 4.04123V2.58486C22.3848 2.58486 21.9013 2.72442 21.5459 3.11279C21.2007 3.49012 21.0804 3.99012 21.0804 4.49479H22.5368ZM22.8572 4.04123C23.0361 4.04123 23.2633 4.10963 23.4489 4.21403L24.1629 2.94469C23.8159 2.74949 23.344 2.58486 22.8572 2.58486V4.04123ZM24.493 3.82037L25.2753 1.59004L23.901 1.10802L23.1187 3.33834L24.493 3.82037ZM24.9687 0.728177C24.2877 0.310825 23.3159 0.154806 22.491 0.154806V1.61118C23.1973 1.61118 23.8566 1.75475 24.2076 1.96988L24.9687 0.728177ZM22.491 0.154806C21.1424 0.154806 20.002 0.552612 19.1962 1.34003C18.3892 2.1287 18.0012 3.22676 18.0012 4.4615H19.4576C19.4576 3.53249 19.7437 2.8413 20.2141 2.38165C20.6857 1.92075 21.4262 1.61118 22.491 1.61118V0.154806ZM18.0012 4.4615V4.69452H19.4576V4.4615H18.0012ZM18.7294 3.96634H17.4145V5.42271H18.7294V3.96634ZM16.6863 4.69452V7.058H18.1427V4.69452H16.6863ZM17.4145 7.78619H18.7294V6.32982H17.4145V7.78619ZM18.0012 7.058V13.3828H19.4576V7.058H18.0012ZM18.7294 14.111H21.8918V12.6546H18.7294V14.111ZM22.62 13.3828V7.058H21.1636V13.3828H22.62ZM21.8918 7.78619H23.9557V6.32982H21.8918V7.78619ZM24.6839 7.058V4.69452H23.2275V7.058H24.6839ZM23.9557 3.96634H21.8086V5.42271H23.9557V3.96634ZM22.5368 4.69452V4.49479H21.0804V4.69452H22.5368ZM29.7211 14.2608C33.0436 14.2608 35.5424 12.044 35.5424 8.85558H34.086C34.086 11.1265 32.3572 12.8044 29.7211 12.8044V14.2608ZM35.5424 8.85558C35.5424 5.6789 33.0382 3.48365 29.7211 3.48365V4.94002C32.3626 4.94002 34.086 6.60624 34.086 8.85558H35.5424ZM29.7211 3.48365C26.4406 3.48365 23.8998 5.6759 23.8998 8.85558H25.3561C25.3561 6.60924 27.1095 4.94002 29.7211 4.94002V3.48365ZM23.8998 8.85558C23.8998 12.047 26.4352 14.2608 29.7211 14.2608V12.8044C27.1149 12.8044 25.3561 11.1235 25.3561 8.85558H23.8998ZM29.7211 10.2911C29.3729 10.2911 29.0985 10.1672 28.907 9.96059C28.7134 9.75159 28.5518 9.39937 28.5518 8.85558H27.0955C27.0955 9.69326 27.35 10.4229 27.8388 10.9504C28.3297 11.4803 29.004 11.7475 29.7211 11.7475V10.2911ZM28.5518 8.85558C28.5518 8.32264 28.7118 7.98066 28.9028 7.77799C29.0926 7.57664 29.368 7.4533 29.7211 7.4533V5.99693C29.009 5.99693 28.3356 6.25641 27.843 6.77909C27.3516 7.30044 27.0955 8.02369 27.0955 8.85558H28.5518ZM29.7211 7.4533C30.0848 7.4533 30.3583 7.57806 30.5441 7.77637C30.7322 7.97719 30.8903 8.31866 30.8903 8.85558H32.3467C32.3467 8.02767 32.0971 7.30391 31.6069 6.78071C31.1145 6.25499 30.4393 5.99693 29.7211 5.99693V7.4533ZM30.8903 8.85558C30.8903 9.4033 30.7307 9.75504 30.5399 9.96222C30.3524 10.1657 30.0798 10.2911 29.7211 10.2911V11.7475C30.4442 11.7475 31.1203 11.4818 31.6112 10.9488C32.0986 10.4195 32.3467 9.68933 32.3467 8.85558H30.8903ZM45.0673 5.6266L44.4582 6.02566C44.5863 6.22108 44.8003 6.34321 45.0337 6.35401C45.2671 6.3648 45.4914 6.26297 45.637 6.0802L45.0673 5.6266ZM39.4582 5.31036H38.73C38.73 5.60956 38.9131 5.87832 39.1915 5.98792C39.4699 6.09753 39.787 6.02568 39.991 5.80678L39.4582 5.31036ZM39.4582 4.36164H40.1864C40.1864 3.95947 39.8604 3.63345 39.4582 3.63345V4.36164ZM36.4456 4.36164V3.63345C36.0434 3.63345 35.7174 3.95947 35.7174 4.36164H36.4456ZM36.4456 13.3828H35.7174C35.7174 13.785 36.0434 14.111 36.4456 14.111V13.3828ZM39.608 13.3828V14.111C40.0102 14.111 40.3362 13.785 40.3362 13.3828H39.608ZM42.5707 13.3828H41.8425C41.8425 13.785 42.1685 14.111 42.5707 14.111V13.3828ZM45.7331 13.3828V14.111C46.1353 14.111 46.4613 13.785 46.4613 13.3828H45.7331ZM48.6791 13.3828H47.9509C47.9509 13.785 48.277 14.111 48.6791 14.111V13.3828ZM51.8415 13.3828V14.111C52.2437 14.111 52.5697 13.785 52.5697 13.3828H51.8415ZM48.1964 3.48365C46.7009 3.48365 45.3661 4.08239 44.4977 5.17299L45.637 6.0802C46.1999 5.37323 47.0955 4.94002 48.1964 4.94002V3.48365ZM45.6764 5.22753C44.8775 4.00817 43.5674 3.48365 42.1546 3.48365V4.94002C43.2052 4.94002 43.9922 5.3143 44.4582 6.02566L45.6764 5.22753ZM42.1546 3.48365C40.9182 3.48365 39.7654 3.91259 38.9255 4.81394L39.991 5.80678C40.5159 5.24343 41.2605 4.94002 42.1546 4.94002V3.48365ZM40.1864 5.31036V4.36164H38.73V5.31036H40.1864ZM39.4582 3.63345H36.4456V5.08982H39.4582V3.63345ZM35.7174 4.36164V13.3828H37.1738V4.36164H35.7174ZM36.4456 14.111H39.608V12.6546H36.4456V14.111ZM40.3362 13.3828V8.90551H38.8798V13.3828H40.3362ZM40.3362 8.90551C40.3362 8.31192 40.4782 8.00166 40.6093 7.84929C40.7274 7.71212 40.9075 7.61975 41.2059 7.61975V6.16337C40.5722 6.16337 39.9534 6.37892 39.5055 6.8992C39.0708 7.40427 38.8798 8.10098 38.8798 8.90551H40.3362ZM41.2059 7.61975C41.4615 7.61975 41.5673 7.69337 41.6337 7.77801C41.7258 7.89527 41.8425 8.16739 41.8425 8.73907H43.2989C43.2989 8.0125 43.1576 7.36086 42.7795 6.87893C42.3757 6.36438 41.7991 6.16337 41.2059 6.16337V7.61975ZM41.8425 8.73907V13.3828H43.2989V8.73907H41.8425ZM42.5707 14.111H45.7331V12.6546H42.5707V14.111ZM46.4613 13.3828V8.90551H45.0049V13.3828H46.4613ZM46.4613 8.90551C46.4613 8.3121 46.6032 8.00042 46.734 7.84727C46.8517 7.7096 47.028 7.61975 47.3143 7.61975V6.16337C46.6852 6.16337 46.0709 6.38144 45.6268 6.90121C45.1959 7.40551 45.0049 8.10081 45.0049 8.90551H46.4613ZM47.3143 7.61975C47.5582 7.61975 47.6672 7.69126 47.7379 7.78046C47.832 7.89934 47.9509 8.17224 47.9509 8.73907H49.4073C49.4073 8.00765 49.26 7.3568 48.8797 6.87648C48.476 6.36649 47.9027 6.16337 47.3143 6.16337V7.61975ZM47.9509 8.73907V13.3828H49.4073V8.73907H47.9509ZM48.6791 14.111H51.8415V12.6546H48.6791V14.111ZM52.5697 13.3828V8.2231H51.1133V13.3828H52.5697ZM52.5697 8.2231C52.5697 6.69275 52.1438 5.48275 51.322 4.65563C50.5011 3.82948 49.3828 3.48365 48.1964 3.48365V4.94002C49.1073 4.94002 49.8115 5.20171 50.2889 5.68214C50.7653 6.16159 51.1133 6.95721 51.1133 8.2231H52.5697ZM53.8708 5.26042L53.4692 4.65304C53.1627 4.8557 53.0552 5.25492 53.2185 5.58405L53.8708 5.26042ZM54.9361 7.40753L54.2837 7.73116C54.3811 7.92737 54.5616 8.06934 54.7752 8.11773C54.9888 8.16611 55.2129 8.11577 55.3853 7.98065L54.9361 7.40753ZM59.2969 8.05666V8.78484C59.4969 8.78484 59.6881 8.70257 59.8256 8.55734C59.9631 8.41211 60.0348 8.21671 60.024 8.017L59.2969 8.05666ZM59.5132 12.2177H60.2414C60.2414 11.8821 60.012 11.5899 59.6859 11.5103C59.3599 11.4307 59.0216 11.5843 58.867 11.8822L59.5132 12.2177ZM59.5132 13.3828H58.785C58.785 13.785 59.1111 14.111 59.5132 14.111V13.3828ZM62.4593 13.3828V14.111C62.8614 14.111 63.1874 13.785 63.1874 13.3828H62.4593ZM59.2969 9.70444H60.025C60.025 9.30227 59.699 8.97625 59.2969 8.97625V9.70444ZM59.2969 10.4867L59.9844 10.7266C60.0113 10.6495 60.025 10.5684 60.025 10.4867H59.2969ZM57.8488 3.48365C56.3353 3.48365 54.6524 3.87059 53.4692 4.65304L54.2725 5.86782C55.1532 5.28544 56.5328 4.94002 57.8488 4.94002V3.48365ZM53.2185 5.58405L54.2837 7.73116L55.5884 7.0839L54.5231 4.9368L53.2185 5.58405ZM55.3853 7.98065C55.8532 7.6139 56.6531 7.35344 57.3828 7.35344V5.89707C56.3814 5.89707 55.2506 6.23579 54.4869 6.83441L55.3853 7.98065ZM57.3828 7.35344C57.9209 7.35344 58.2048 7.46673 58.345 7.5747C58.4604 7.6635 58.5539 7.80522 58.5697 8.09632L60.024 8.017C59.9899 7.39266 59.7505 6.81868 59.2334 6.42063C58.7412 6.04176 58.0929 5.89707 57.3828 5.89707V7.35344ZM59.2969 7.32847H57.4993V8.78484H59.2969V7.32847ZM57.4993 7.32847C56.0315 7.32847 54.8521 7.59583 54.0222 8.18788C53.1506 8.80963 52.7598 9.72033 52.7598 10.753H54.2162C54.2162 10.1213 54.4329 9.68381 54.8679 9.37349C55.3446 9.03345 56.1708 8.78484 57.4993 8.78484V7.32847ZM52.7598 10.753C52.7598 11.7309 53.1396 12.6306 53.8779 13.2773C54.6096 13.9182 55.6344 14.2608 56.8501 14.2608V12.8044C55.9022 12.8044 55.2459 12.5395 54.8375 12.1818C54.4357 11.8298 54.2162 11.3397 54.2162 10.753H52.7598ZM56.8501 14.2608C58.3323 14.2608 59.543 13.7405 60.1595 12.5533L58.867 11.8822C58.5846 12.4259 57.9978 12.8044 56.8501 12.8044V14.2608ZM58.785 12.2177V13.3828H60.2414V12.2177H58.785ZM59.5132 14.111H62.4593V12.6546H59.5132V14.111ZM63.1874 13.3828V8.3729H61.7311V13.3828H63.1874ZM63.1874 8.3729C63.1874 6.79628 62.7194 5.52752 61.7298 4.66882C60.7594 3.82678 59.4058 3.48365 57.8488 3.48365V4.94002C59.2212 4.94002 60.1728 5.24602 60.7753 5.76881C61.3586 6.27493 61.7311 7.0867 61.7311 8.3729H63.1874ZM57.7323 10.8071C57.4752 10.8071 57.356 10.7413 57.3169 10.7098C57.2919 10.6897 57.2787 10.672 57.2787 10.6199H55.8224C55.8224 11.1003 56.0256 11.5403 56.4042 11.8448C56.7687 12.1379 57.2404 12.2635 57.7323 12.2635V10.8071ZM57.2787 10.6199C57.2787 10.5914 57.2811 10.572 57.2834 10.5599C57.2846 10.554 57.2857 10.5499 57.2865 10.5474C57.2868 10.5462 57.2872 10.5453 57.2874 10.5447C57.2876 10.5442 57.2877 10.5439 57.2877 10.5439C57.2877 10.5439 57.2876 10.544 57.2875 10.5444C57.2873 10.5447 57.287 10.5452 57.2867 10.5457C57.286 10.5468 57.2853 10.5478 57.2847 10.5486C57.2831 10.5505 57.2842 10.5485 57.2912 10.5434C57.3278 10.5166 57.4893 10.4326 57.932 10.4326V8.97625C57.3594 8.97625 56.8302 9.07541 56.4299 9.36897C55.9857 9.69475 55.8224 10.1659 55.8224 10.6199H57.2787ZM57.932 10.4326H59.2969V8.97625H57.932V10.4326ZM58.5687 9.70444V10.4867H60.025V9.70444H58.5687ZM58.6093 10.2469C58.4816 10.613 58.1869 10.8071 57.7323 10.8071V12.2635C58.6758 12.2635 59.6128 11.7919 59.9844 10.7266L58.6093 10.2469ZM70.0645 10.803L70.7511 10.5603C70.6756 10.3468 70.5051 10.1805 70.2897 10.1105C70.0743 10.0404 69.8386 10.0746 69.652 10.2029L70.0645 10.803ZM68.1504 7.058V6.32982C67.7482 6.32982 67.4222 6.65584 67.4222 7.058H68.1504ZM70.2143 7.058V7.78619C70.6165 7.78619 70.9425 7.46017 70.9425 7.058H70.2143ZM70.2143 4.69452H70.9425C70.9425 4.29236 70.6165 3.96634 70.2143 3.96634V4.69452ZM68.1504 4.69452H67.4222C67.4222 5.09669 67.7482 5.42271 68.1504 5.42271V4.69452ZM68.1504 2.34768H68.8786C68.8786 1.94552 68.5526 1.6195 68.1504 1.6195V2.34768ZM64.988 2.34768V1.6195C64.5858 1.6195 64.2598 1.94552 64.2598 2.34768H64.988ZM64.988 4.69452V5.42271C65.3902 5.42271 65.7162 5.09669 65.7162 4.69452H64.988ZM63.6731 4.69452V3.96634C63.2709 3.96634 62.9449 4.29236 62.9449 4.69452H63.6731ZM63.6731 7.058H62.9449C62.9449 7.46017 63.2709 7.78619 63.6731 7.78619V7.058ZM64.988 7.058H65.7162C65.7162 6.65584 65.3902 6.32982 64.988 6.32982V7.058ZM70.8468 13.0166L71.2377 13.631C71.5237 13.449 71.6463 13.0937 71.5334 12.774L70.8468 13.0166ZM69.652 10.2029C69.5216 10.2926 69.32 10.3577 69.0991 10.3577V11.8141C69.5773 11.8141 70.0748 11.6795 70.477 11.403L69.652 10.2029ZM69.0991 10.3577C68.9766 10.3577 68.9442 10.322 68.9399 10.3174C68.9325 10.3096 68.8786 10.2486 68.8786 10.054H67.4222C67.4222 10.5251 67.5598 10.98 67.8853 11.3218C68.2138 11.6668 68.6557 11.8141 69.0991 11.8141V10.3577ZM68.8786 10.054V7.058H67.4222V10.054H68.8786ZM68.1504 7.78619H70.2143V6.32982H68.1504V7.78619ZM70.9425 7.058V4.69452H69.4861V7.058H70.9425ZM70.2143 3.96634H68.1504V5.42271H70.2143V3.96634ZM68.8786 4.69452V2.34768H67.4222V4.69452H68.8786ZM68.1504 1.6195H64.988V3.07587H68.1504V1.6195ZM64.2598 2.34768V4.69452H65.7162V2.34768H64.2598ZM64.988 3.96634H63.6731V5.42271H64.988V3.96634ZM62.9449 4.69452V7.058H64.4013V4.69452H62.9449ZM63.6731 7.78619H64.988V6.32982H63.6731V7.78619ZM64.2598 7.058V10.0873H65.7162V7.058H64.2598ZM64.2598 10.0873C64.2598 11.3866 64.6425 12.4681 65.4601 13.2151C66.2664 13.9517 67.3846 14.2608 68.6497 14.2608V12.8044C67.6013 12.8044 66.8887 12.5476 66.4425 12.1399C66.0076 11.7426 65.7162 11.1014 65.7162 10.0873H64.2598ZM68.6497 14.2608C69.5528 14.2608 70.5253 14.0843 71.2377 13.631L70.4558 12.4023C70.0697 12.648 69.4111 12.8044 68.6497 12.8044V14.2608ZM71.5334 12.774L70.7511 10.5603L69.3779 11.0456L70.1602 13.2593L71.5334 12.774ZM72.2327 13.3828H71.5045C71.5045 13.785 71.8305 14.111 72.2327 14.111V13.3828ZM75.3951 13.3828V14.111C75.7972 14.111 76.1233 13.785 76.1233 13.3828H75.3951ZM75.3951 4.36164H76.1233C76.1233 3.95947 75.7972 3.63345 75.3951 3.63345V4.36164ZM72.2327 4.36164V3.63345C71.8305 3.63345 71.5045 3.95947 71.5045 4.36164H72.2327ZM73.8139 4.09117C74.5494 4.09117 75.2162 3.8582 75.7073 3.40959C76.2022 2.95742 76.4728 2.32634 76.4728 1.63198H75.0164C75.0164 1.93628 74.9042 2.17069 74.725 2.33437C74.542 2.50159 74.2434 2.6348 73.8139 2.6348V4.09117ZM76.4728 1.63198C76.4728 0.948511 76.1911 0.337697 75.6903 -0.0919948C75.1973 -0.514992 74.536 -0.727339 73.8139 -0.727339V0.729032C74.2568 0.729032 74.5609 0.857892 74.742 1.01328C74.9153 1.16198 75.0164 1.36673 75.0164 1.63198H76.4728ZM73.8139 -0.727339C72.3246 -0.727339 71.155 0.25721 71.155 1.68191H72.6113C72.6113 1.20918 72.9729 0.729032 73.8139 0.729032V-0.727339ZM71.155 1.68191C71.155 3.10662 72.3246 4.09117 73.8139 4.09117V2.6348C72.9729 2.6348 72.6113 2.15465 72.6113 1.68191H71.155ZM72.2327 14.111H75.3951V12.6546H72.2327V14.111ZM76.1233 13.3828V4.36164H74.6669V13.3828H76.1233ZM75.3951 3.63345H72.2327V5.08982H75.3951V3.63345ZM71.5045 4.36164V13.3828H72.9609V4.36164H71.5045ZM86.9541 13.3828V14.111C87.2295 14.111 87.4813 13.9557 87.6049 13.7096C87.7284 13.4635 87.7026 13.1688 87.5382 12.9479L86.9541 13.3828ZM83.5088 8.75571L82.9283 8.31599C82.7327 8.57426 82.7312 8.93073 82.9247 9.19061L83.5088 8.75571ZM86.8376 4.36164L87.418 4.80136C87.585 4.581 87.6127 4.28512 87.4897 4.03756C87.3667 3.78999 87.1141 3.63345 86.8376 3.63345V4.36164ZM83.4921 4.36164V3.63345C83.2596 3.63345 83.041 3.7445 82.9039 3.93232L83.4921 4.36164ZM81.8277 6.6419L81.2313 7.05978C81.3662 7.25224 81.5857 7.36778 81.8207 7.37005C82.0556 7.37232 82.2773 7.26103 82.4158 7.07121L81.8277 6.6419ZM80.2298 4.36164L80.8262 3.94376C80.6899 3.74926 80.4673 3.63345 80.2298 3.63345V4.36164ZM76.668 4.36164V3.63345C76.3932 3.63345 76.1418 3.78815 76.0179 4.03347C75.8941 4.27879 75.9189 4.57293 76.0821 4.79404L76.668 4.36164ZM79.9968 8.87222L80.5765 9.31289C80.7722 9.05551 80.7747 8.69995 80.5827 8.43982L79.9968 8.87222ZM76.5681 13.3828L75.9884 12.9421C75.821 13.1624 75.7928 13.4585 75.9157 13.7064C76.0387 13.9542 76.2914 14.111 76.5681 14.111V13.3828ZM79.9968 13.3828V14.111C80.2289 14.111 80.4471 14.0003 80.5843 13.8131L79.9968 13.3828ZM81.7278 11.0193L82.3291 10.6086C82.1958 10.4134 81.9761 10.2951 81.7398 10.2912C81.5035 10.2874 81.28 10.3984 81.1403 10.5891L81.7278 11.0193ZM83.3423 13.3828L82.741 13.7936C82.8767 13.9922 83.1018 14.111 83.3423 14.111V13.3828ZM87.5382 12.9479L84.0928 8.32082L82.9247 9.19061L86.3701 13.8177L87.5382 12.9479ZM84.0892 9.19543L87.418 4.80136L86.2572 3.92192L82.9283 8.31599L84.0892 9.19543ZM86.8376 3.63345H83.4921V5.08982H86.8376V3.63345ZM82.9039 3.93232L81.2395 6.21258L82.4158 7.07121L84.0803 4.79095L82.9039 3.93232ZM82.424 6.22402L80.8262 3.94376L79.6335 4.77951L81.2313 7.05978L82.424 6.22402ZM80.2298 3.63345H76.668V5.08982H80.2298V3.63345ZM76.0821 4.79404L79.4109 9.30462L80.5827 8.43982L77.2539 3.92923L76.0821 4.79404ZM79.4171 8.43156L75.9884 12.9421L77.1478 13.8235L80.5765 9.31289L79.4171 8.43156ZM76.5681 14.111H79.9968V12.6546H76.5681V14.111ZM80.5843 13.8131L82.3153 11.4496L81.1403 10.5891L79.4093 12.9525L80.5843 13.8131ZM81.1265 11.4301L82.741 13.7936L83.9436 12.9721L82.3291 10.6086L81.1265 11.4301ZM83.3423 14.111H86.9541V12.6546H83.3423V14.111Z" fill="url(#paint0_linear_330_881)"/>
<defs>
<linearGradient id="paint0_linear_330_881" x1="1.34591" y1="-1.89573" x2="92.8892" y2="21.5102" gradientUnits="userSpaceOnUse">
<stop stop-color="#31CEFF"/>
<stop offset="0.743749" stop-color="#781FFD"/>
<stop offset="0.963542" stop-color="#781FFD"/>
</linearGradient>
</defs>
</svg>
