<svg width="16" height="17" viewBox="0 0 16 17" fill="none" xmlns="http://www.w3.org/2000/svg">
<path d="M8.32795 16.0541C9.85296 16.0748 11.3505 15.6477 12.6352 14.8256C13.9198 14.0035 14.935 12.8225 15.5549 11.4291C15.6312 11.2483 15.6736 11.0551 15.6799 10.8591C15.6842 10.7908 15.6744 10.7225 15.6512 10.6582C15.6279 10.5939 15.5918 10.5351 15.5449 10.4853C15.4981 10.4355 15.4415 10.3959 15.3787 10.3689C15.316 10.3418 15.2483 10.3279 15.1799 10.3281C14.998 10.334 14.8196 10.3794 14.6569 10.4611C13.8774 10.7286 13.0591 10.8657 12.2349 10.8671C8.18795 10.8671 5.61795 8.36706 5.61795 4.35106C5.61492 3.4285 5.78169 2.51326 6.10995 1.65106C6.19462 1.49062 6.24245 1.31332 6.24995 1.13206C6.25141 1.06161 6.23835 0.991618 6.21157 0.92644C6.18479 0.861262 6.14487 0.802299 6.0943 0.753229C6.04373 0.704159 5.98359 0.666034 5.91764 0.64123C5.85168 0.616427 5.78132 0.605477 5.71095 0.609063C5.52567 0.615023 5.34302 0.65467 5.17195 0.726063C3.71945 1.35519 2.48457 2.39842 1.62162 3.72539C0.758666 5.05237 0.305917 6.60423 0.319949 8.18706C0.298616 9.23803 0.49225 10.2823 0.88897 11.2557C1.28569 12.2291 1.87713 13.1113 2.627 13.8479C3.37686 14.5846 4.26935 15.1603 5.24968 15.5396C6.23002 15.919 7.27753 16.0941 8.32795 16.0541Z" fill="#781FFD"/>
</svg>
