<svg width="1440" height="45" viewBox="0 0 1440 45" fill="none" xmlns="http://www.w3.org/2000/svg">
<path d="M-129 2.99988C-99.9207 2.99988 -83.6171 42.9999 -54.5378 42.9999C-25.4585 42.9999 -9.15492 2.99988 19.9244 2.99988C49.0037 2.99988 65.3073 42.9999 94.3866 42.9999C123.466 42.9999 135.902 2.99989 168.849 2.99988C201.795 2.99987 214.232 42.9999 243.311 42.9999C272.39 42.9999 288.694 2.99988 317.773 2.99988C346.852 2.99988 363.156 42.9999 392.235 42.9999C421.315 42.9999 437.618 2.99988 466.697 2.99988C495.777 2.99988 512.08 42.9999 541.16 42.9999C570.239 42.9999 586.543 2.99988 615.622 2.99988C644.701 2.99988 661.005 42.9999 690.084 42.9999C719.163 42.9999 735.467 2.99988 764.546 2.99988C793.626 2.99988 809.929 42.9999 839.009 42.9999C868.088 42.9999 884.391 2.99988 913.471 2.99988C942.55 2.99988 958.854 42.9999 987.933 42.9999C1016.66 42.9999 1032.77 3.19512 1061.5 2.99988C1090.22 2.80462 1106.33 42.195 1135.06 41.9999C1163.74 41.8051 1179.83 1.99988 1208.51 1.99988C1237.2 1.99988 1253.28 41.9999 1281.97 41.9999C1310.65 41.9999 1326.74 1.99988 1355.42 1.99988C1384.24 1.99988 1400.4 41.9999 1429.21 41.9999C1458.03 41.9999 1474.18 1.99988 1503 1.99988" stroke="#272646" stroke-width="3"/>
</svg>
