<svg width="600" height="600" viewBox="0 0 600 600" fill="none" xmlns="http://www.w3.org/2000/svg">
<g opacity="0.32" filter="url(#filter0_f_330_1040)">
<mask id="mask0_330_1040" style="mask-type:alpha" maskUnits="userSpaceOnUse" x="60" y="60" width="480" height="480">
<path fill-rule="evenodd" clip-rule="evenodd" d="M300 540C432.548 540 540 432.548 540 300C540 167.452 432.548 60 300 60C167.452 60 60 167.452 60 300C60 432.548 167.452 540 300 540ZM300 463.2C390.133 463.2 463.2 390.133 463.2 300C463.2 209.867 390.133 136.8 300 136.8C209.867 136.8 136.8 209.867 136.8 300C136.8 390.133 209.867 463.2 300 463.2Z" fill="#C4C4C4"/>
</mask>
<g mask="url(#mask0_330_1040)">
<path d="M420.326 507.657C368.995 537.401 308.467 547.079 250.421 534.823L300 300L420.326 507.657Z" fill="#781FFD"/>
<path d="M250.41 534.821C209.107 526.098 170.835 506.636 139.456 478.398L300 300L250.41 534.821Z" fill="#FD1F97"/>
<path d="M139.48 478.419C98.5387 441.585 71.5106 391.791 62.9306 337.391L300 300L139.48 478.419Z" fill="#FD541F"/>
<path d="M62.9282 337.376C57.4608 302.697 59.6682 267.241 69.3947 233.508C79.1211 199.775 96.1298 168.587 119.221 142.142L300 300L62.9282 337.376Z" fill="#E2CC06"/>
<path d="M119.229 142.134C141.756 116.338 169.542 95.6629 200.722 81.4963C231.902 67.3297 265.752 60.0001 299.999 60L300 300L119.229 142.134Z" fill="#0094FF"/>
<path d="M300 60C352.798 60 404.122 77.4103 446.023 109.534C487.924 141.658 518.062 186.702 531.77 237.689C545.478 288.677 541.99 342.761 521.846 391.565C501.703 440.37 466.028 481.169 420.348 507.645L300 300V60Z" fill="#06E2A0"/>
</g>
</g>
<mask id="mask1_330_1040" style="mask-type:alpha" maskUnits="userSpaceOnUse" x="60" y="44" width="480" height="480">
<path fill-rule="evenodd" clip-rule="evenodd" d="M300 524C432.548 524 540 416.548 540 284C540 151.452 432.548 44 300 44C167.452 44 60 151.452 60 284C60 416.548 167.452 524 300 524ZM300 447.2C390.133 447.2 463.2 374.133 463.2 284C463.2 193.867 390.133 120.8 300 120.8C209.867 120.8 136.8 193.867 136.8 284C136.8 374.133 209.867 447.2 300 447.2Z" fill="#C4C4C4"/>
</mask>
<g mask="url(#mask1_330_1040)">
<path d="M420.326 491.657C368.995 521.401 308.467 531.079 250.421 518.823L300 284L420.326 491.657Z" fill="#781FFD"/>
<path d="M250.41 518.821C209.107 510.098 170.835 490.636 139.456 462.398L300 284L250.41 518.821Z" fill="#FD1F97"/>
<path d="M139.48 462.419C98.5387 425.585 71.5106 375.791 62.9306 321.391L300 284L139.48 462.419Z" fill="#FD541F"/>
<path d="M62.9282 321.376C57.4608 286.697 59.6682 251.241 69.3947 217.508C79.1211 183.775 96.1298 152.587 119.221 126.142L300 284L62.9282 321.376Z" fill="#E2CC06"/>
<path d="M119.229 126.134C141.756 100.338 169.542 79.6629 200.722 65.4963C231.902 51.3297 265.752 44.0001 299.999 44L300 284L119.229 126.134Z" fill="#0094FF"/>
<path d="M300 44C352.798 44 404.122 61.4103 446.023 93.534C487.924 125.658 518.062 170.702 531.77 221.689C545.478 272.677 541.99 326.761 521.846 375.565C501.703 424.37 466.028 465.169 420.348 491.645L300 284V44Z" fill="#06E2A0"/>
</g>
<g opacity="0.32" filter="url(#filter1_f_330_1040)">
<path d="M374.58 261.55C375.402 261.96 375.866 262.797 375.859 263.716C375.552 305.135 362.003 363.743 299.065 363.743C236.127 363.743 222.578 305.135 222.27 263.716C222.263 262.797 222.728 261.96 223.55 261.55C228.412 259.123 248.064 251.286 299.065 251.286C350.066 251.286 369.717 259.123 374.58 261.55Z" fill="white"/>
<path d="M225.6 245.352C225.6 234.996 233.994 226.602 244.35 226.602C254.705 226.602 263.1 234.996 263.1 245.352V251.602L225.6 256.602V245.352Z" fill="#FF28FF"/>
<path d="M335.314 245.352C335.314 234.996 343.709 226.602 354.064 226.602C364.42 226.602 372.814 234.996 372.814 245.352V256.602L335.314 251.602V245.352Z" fill="#FF28FF"/>
<path d="M329.213 330.826C337.498 330.826 344.213 321.002 344.213 308.883C344.213 296.764 337.498 286.94 329.213 286.94C320.929 286.94 314.213 296.764 314.213 308.883C314.213 321.002 320.929 330.826 329.213 330.826Z" fill="url(#paint0_linear_330_1040)"/>
<path d="M269.213 330.826C277.497 330.826 284.213 321.002 284.213 308.883C284.213 296.765 277.497 286.94 269.213 286.94C260.929 286.94 254.213 296.765 254.213 308.883C254.213 321.002 260.929 330.826 269.213 330.826Z" fill="url(#paint1_linear_330_1040)"/>
<g filter="url(#filter2_d_330_1040)">
<path fill-rule="evenodd" clip-rule="evenodd" d="M299.064 243.858C262.541 243.858 241.409 247.819 229.963 251.228C219.792 254.258 214.616 263.792 215.136 273.252C216.277 294.036 220.941 318.258 233.508 337.498C246.379 357.203 267.254 371.171 299.064 371.171C330.875 371.171 351.749 357.203 364.621 337.498C377.188 318.258 381.852 294.036 382.993 273.252C383.512 263.792 378.337 254.258 368.165 251.228C356.72 247.819 335.588 243.858 299.064 243.858ZM232.726 294.835C235.196 307.247 239.371 319.308 245.946 329.374C256.168 345.024 272.441 356.316 299.064 356.316C325.688 356.316 341.961 345.024 352.183 329.374C358.804 319.237 362.991 307.078 365.455 294.574C365.622 288.464 363.005 282.728 357.328 280.15C347.644 275.752 329.664 270.491 299.064 270.491C268.562 270.491 250.592 275.729 240.897 280.111C235.114 282.724 232.483 288.605 232.726 294.835Z" fill="url(#paint2_linear_330_1040)"/>
</g>
</g>
<path d="M374.58 245.55C375.402 245.96 375.866 246.797 375.859 247.716C375.552 289.135 362.003 347.743 299.065 347.743C236.127 347.743 222.578 289.135 222.27 247.716C222.263 246.797 222.728 245.96 223.55 245.55C228.412 243.123 248.064 235.286 299.065 235.286C350.066 235.286 369.717 243.123 374.58 245.55Z" fill="white"/>
<path d="M225.6 229.352C225.6 218.996 233.994 210.602 244.35 210.602C254.705 210.602 263.1 218.996 263.1 229.352V235.602L225.6 240.602V229.352Z" fill="#FF28FF"/>
<path d="M335.314 229.352C335.314 218.996 343.709 210.602 354.064 210.602C364.42 210.602 372.814 218.996 372.814 229.352V240.602L335.314 235.602V229.352Z" fill="#FF28FF"/>
<path d="M329.213 314.826C337.498 314.826 344.213 305.002 344.213 292.883C344.213 280.764 337.498 270.94 329.213 270.94C320.929 270.94 314.213 280.764 314.213 292.883C314.213 305.002 320.929 314.826 329.213 314.826Z" fill="url(#paint3_linear_330_1040)"/>
<path d="M269.213 314.826C277.497 314.826 284.213 305.002 284.213 292.883C284.213 280.765 277.497 270.94 269.213 270.94C260.929 270.94 254.213 280.765 254.213 292.883C254.213 305.002 260.929 314.826 269.213 314.826Z" fill="url(#paint4_linear_330_1040)"/>
<g filter="url(#filter3_d_330_1040)">
<path fill-rule="evenodd" clip-rule="evenodd" d="M299.064 227.858C262.541 227.858 241.409 231.819 229.963 235.228C219.792 238.258 214.616 247.792 215.136 257.252C216.277 278.036 220.941 302.258 233.508 321.498C246.379 341.203 267.254 355.171 299.064 355.171C330.875 355.171 351.749 341.203 364.621 321.498C377.188 302.258 381.852 278.036 382.993 257.252C383.512 247.792 378.337 238.258 368.165 235.228C356.72 231.819 335.588 227.858 299.064 227.858ZM232.726 278.835C235.196 291.247 239.371 303.308 245.946 313.374C256.168 329.024 272.441 340.316 299.064 340.316C325.688 340.316 341.961 329.024 352.183 313.374C358.804 303.237 362.991 291.078 365.455 278.574C365.622 272.464 363.005 266.728 357.328 264.15C347.644 259.752 329.664 254.491 299.064 254.491C268.562 254.491 250.592 259.729 240.897 264.111C235.114 266.724 232.483 272.605 232.726 278.835Z" fill="url(#paint5_linear_330_1040)"/>
</g>
<defs>
<filter id="filter0_f_330_1040" x="0" y="0" width="600" height="600" filterUnits="userSpaceOnUse" color-interpolation-filters="sRGB">
<feFlood flood-opacity="0" result="BackgroundImageFix"/>
<feBlend mode="normal" in="SourceGraphic" in2="BackgroundImageFix" result="shape"/>
<feGaussianBlur stdDeviation="30" result="effect1_foregroundBlur_330_1040"/>
</filter>
<filter id="filter1_f_330_1040" x="155.1" y="166.602" width="287.928" height="264.57" filterUnits="userSpaceOnUse" color-interpolation-filters="sRGB">
<feFlood flood-opacity="0" result="BackgroundImageFix"/>
<feBlend mode="normal" in="SourceGraphic" in2="BackgroundImageFix" result="shape"/>
<feGaussianBlur stdDeviation="30" result="effect1_foregroundBlur_330_1040"/>
</filter>
<filter id="filter2_d_330_1040" x="202.617" y="239.697" width="192.895" height="152.279" filterUnits="userSpaceOnUse" color-interpolation-filters="sRGB">
<feFlood flood-opacity="0" result="BackgroundImageFix"/>
<feColorMatrix in="SourceAlpha" type="matrix" values="0 0 0 0 0 0 0 0 0 0 0 0 0 0 0 0 0 0 127 0" result="hardAlpha"/>
<feOffset dy="8.32212"/>
<feGaussianBlur stdDeviation="6.24159"/>
<feColorMatrix type="matrix" values="0 0 0 0 0 0 0 0 0 0.580392 0 0 0 0 1 0 0 0 0.14 0"/>
<feBlend mode="normal" in2="BackgroundImageFix" result="effect1_dropShadow_330_1040"/>
<feBlend mode="normal" in="SourceGraphic" in2="effect1_dropShadow_330_1040" result="shape"/>
</filter>
<filter id="filter3_d_330_1040" x="202.617" y="223.697" width="192.895" height="152.279" filterUnits="userSpaceOnUse" color-interpolation-filters="sRGB">
<feFlood flood-opacity="0" result="BackgroundImageFix"/>
<feColorMatrix in="SourceAlpha" type="matrix" values="0 0 0 0 0 0 0 0 0 0 0 0 0 0 0 0 0 0 127 0" result="hardAlpha"/>
<feOffset dy="8.32212"/>
<feGaussianBlur stdDeviation="6.24159"/>
<feColorMatrix type="matrix" values="0 0 0 0 0 0 0 0 0 0.580392 0 0 0 0 1 0 0 0 0.14 0"/>
<feBlend mode="normal" in2="BackgroundImageFix" result="effect1_dropShadow_330_1040"/>
<feBlend mode="normal" in="SourceGraphic" in2="effect1_dropShadow_330_1040" result="shape"/>
</filter>
<linearGradient id="paint0_linear_330_1040" x1="254.213" y1="286.94" x2="288.791" y2="357.851" gradientUnits="userSpaceOnUse">
<stop stop-color="#00E0FF"/>
<stop offset="0.445833" stop-color="#0094FF"/>
<stop offset="1" stop-color="#781FFD"/>
</linearGradient>
<linearGradient id="paint1_linear_330_1040" x1="254.213" y1="286.94" x2="288.791" y2="357.851" gradientUnits="userSpaceOnUse">
<stop stop-color="#00E0FF"/>
<stop offset="0.445833" stop-color="#0094FF"/>
<stop offset="1" stop-color="#781FFD"/>
</linearGradient>
<linearGradient id="paint2_linear_330_1040" x1="215.1" y1="243.858" x2="337.684" y2="405.549" gradientUnits="userSpaceOnUse">
<stop stop-color="#00E0FF"/>
<stop offset="0.445833" stop-color="#0094FF"/>
<stop offset="1" stop-color="#781FFD"/>
</linearGradient>
<linearGradient id="paint3_linear_330_1040" x1="254.213" y1="270.94" x2="288.791" y2="341.851" gradientUnits="userSpaceOnUse">
<stop stop-color="#00E0FF"/>
<stop offset="0.445833" stop-color="#0094FF"/>
<stop offset="1" stop-color="#781FFD"/>
</linearGradient>
<linearGradient id="paint4_linear_330_1040" x1="254.213" y1="270.94" x2="288.791" y2="341.851" gradientUnits="userSpaceOnUse">
<stop stop-color="#00E0FF"/>
<stop offset="0.445833" stop-color="#0094FF"/>
<stop offset="1" stop-color="#781FFD"/>
</linearGradient>
<linearGradient id="paint5_linear_330_1040" x1="215.1" y1="227.858" x2="337.684" y2="389.549" gradientUnits="userSpaceOnUse">
<stop stop-color="#00E0FF"/>
<stop offset="0.445833" stop-color="#0094FF"/>
<stop offset="1" stop-color="#781FFD"/>
</linearGradient>
</defs>
</svg>
